<!--?xml version="1.0" standalone="no"?--><svg version="1.0" xmlns="http://www.w3.org/2000/svg" width="300.000000pt" height="225.000000pt" viewBox="0 0 300.000000 225.000000" preserveAspectRatio="xMidYMid meet">
<metadata>
  <rdf:rdf xmlns:rdf="http://www.w3.org/1999/02/22-rdf-syntax-ns#" xmlns:rdfs="http://www.w3.org/2000/01/rdf-schema#" xmlns:dc="http://purl.org/dc/elements/1.1/">
    <rdf:description dc:title="ant outline" dc:publisher="Hiox" dc:date="2015-06-09" dc:format="image/svg+xml" dc:language="en">
      <dc:creator>
        <rdf:bag>
          <rdf:li>svgimages.com</rdf:li>
        </rdf:bag>
      </dc:creator>
    </rdf:description>
  </rdf:rdf>
</metadata>
<g transform="translate(0.000000,225.000000) scale(0.100000,-0.100000)" fill="#262626" stroke="none">
<path class="node" id="node1" d="M450 2099 c0 -40 14 -50 86 -65 87 -18 140 -54 154 -103 5 -20 10
-104 10 -187 l0 -151 -62 -16 c-35 -8 -63 -14 -64 -13 -33 46 -159 286 -176
333 -32 91 -61 109 -198 124 -58 7 -115 18 -128 26 -33 20 -40 -7 -12 -47 21
-29 23 -30 108 -30 81 -1 122 -12 122 -35 0 -4 33 -62 74 -129 111 -183 149
-262 136 -286 -6 -11 -14 -20 -18 -20 -5 0 -23 -20 -42 -45 -27 -36 -40 -45
-64 -45 -45 0 -85 -37 -106 -99 -14 -42 -15 -60 -7 -87 7 -24 7 -48 -1 -85 -7
-28 -12 -73 -12 -100 0 -42 -5 -54 -35 -88 -39 -43 -45 -82 -19 -119 11 -16
24 -22 42 -20 23 3 28 9 36 51 8 49 33 74 62 63 20 -8 17 -54 -6 -83 -26 -34
-25 -49 5 -69 42 -27 84 3 99 71 7 34 70 90 87 79 18 -11 4 -140 -21 -204 -73
-185 -143 -283 -240 -334 -25 -13 -54 -35 -64 -49 -18 -24 -18 -27 -2 -51 24
-38 58 -42 113 -15 45 23 50 30 134 192 48 92 91 173 97 180 25 30 91 165 97
199 6 30 2 47 -19 84 -15 26 -25 48 -24 49 2 1 28 16 59 33 l56 32 21 -23 c27
-29 27 -43 2 -140 -23 -87 -72 -196 -125 -275 -37 -57 -44 -92 -21 -111 21
-18 42 -4 79 52 42 64 143 273 152 313 11 50 27 84 39 84 6 0 24 -7 39 -15 16
-8 68 -20 117 -26 l88 -11 -46 -99 c-46 -101 -80 -143 -200 -252 -63 -58 -68
-90 -14 -95 28 -3 41 5 93 55 85 80 183 213 229 309 l39 81 75 5 c47 3 89 13
117 26 24 12 44 20 46 18 3 -3 -19 -55 -69 -166 -27 -59 -41 -189 -35 -320 4
-94 8 -114 39 -180 47 -101 61 -112 153 -118 148 -9 175 32 74 114 -148 119
-157 130 -178 221 -12 47 -10 61 19 173 17 67 44 154 59 193 42 105 53 104
238 -24 69 -49 155 -71 250 -67 l82 4 11 -45 c6 -25 15 -50 19 -56 4 -5 14
-32 21 -60 7 -27 30 -84 52 -126 46 -91 68 -152 68 -188 1 -36 26 -66 85 -97
28 -14 67 -35 87 -46 39 -21 109 -22 115 -1 3 6 -29 47 -70 90 -40 43 -95 104
-121 136 -71 89 -154 265 -180 382 l-7 30 79 18 c63 14 132 42 233 95 4 1 16
-25 28 -60 24 -71 50 -112 138 -219 117 -142 192 -194 264 -183 47 8 69 26 69
57 0 34 -10 42 -92 76 -42 18 -82 39 -89 47 -6 8 -17 14 -24 14 -21 0 -98 93
-129 155 -54 111 -78 195 -77 268 1 58 -3 78 -28 125 -16 32 -32 75 -34 97 -3
22 -13 78 -22 125 -29 157 -35 195 -35 247 0 103 -35 137 -117 115 -80 -22
-118 -65 -196 -222 l-42 -85 -5 158 c-5 152 -6 160 -29 178 -45 37 -117 22
-174 -35 -42 -42 -72 -106 -129 -273 -25 -72 -49 -128 -58 -131 -8 -3 -34 -21
-58 -39 -50 -41 -61 -37 -87 35 -9 26 -30 70 -45 97 -29 53 -64 138 -100 245
-37 107 -69 128 -97 63 -11 -27 -18 -86 -22 -205 -3 -91 -9 -169 -13 -173 -3
-3 -12 11 -19 32 -13 39 -102 250 -134 315 -21 43 -47 55 -81 38 -30 -17 -33
-26 -49 -143 -7 -54 -15 -100 -18 -103 -3 -3 -23 6 -43 20 -21 14 -60 33 -85
41 l-47 16 -6 62 c-3 34 -8 137 -12 229 -8 201 -5 197 -132 214 -48 7 -108 15
-134 19 -46 7 -48 7 -48 -16z m85 -19 c18 -8 17 -9 -7 -9 -15 -1 -30 4 -33 9
-7 12 12 12 40 0z m133 -26 l52 -7 0 -43 0 -44 -32 36 c-18 19 -51 41 -73 49
-44 16 -28 18 53 9z m-335 -96 c14 -12 50 -98 43 -105 -1 -2 -13 16 -26 40
-13 23 -30 50 -38 60 -17 20 -4 23 21 5z m1696 -202 c8 -9 11 -103 9 -317 -1
-274 1 -315 20 -418 46 -241 123 -473 193 -581 53 -82 73 -110 111 -150 132
-141 130 -139 106 -132 -41 12 -178 93 -187 111 -4 9 -11 34 -13 57 -3 22 -26
81 -50 131 -75 150 -139 356 -174 558 -21 117 -26 186 -31 417 -5 254 -7 279
-24 294 -15 14 -24 15 -43 6 -27 -12 -87 -97 -111 -158 -9 -21 -22 -53 -30
-69 -8 -17 -28 -68 -44 -113 -38 -102 -149 -322 -163 -322 -5 0 7 30 28 68 57
100 82 155 109 235 113 339 148 397 241 397 23 0 47 -6 53 -14z m-654 -117
c13 -42 58 -147 100 -234 56 -117 73 -160 63 -166 -6 -4 -15 -6 -20 -3 -12 8
-118 192 -144 251 -14 30 -30 53 -39 53 -12 0 -15 -18 -15 -106 0 -80 -3 -105
-12 -101 -7 2 -12 17 -11 33 2 16 7 108 12 204 5 96 10 177 11 180 3 17 34
-46 55 -111z m-284 34 c17 -38 39 -86 49 -108 21 -45 90 -208 90 -212 0 -2 -5
-3 -11 -3 -12 0 -76 134 -114 242 -29 81 -50 112 -64 90 -4 -7 -13 -58 -19
-114 -7 -56 -14 -104 -17 -106 -14 -14 -17 14 -7 60 6 29 14 85 18 123 4 46
12 74 22 83 9 6 17 12 19 12 2 0 17 -30 34 -67z m1299 38 c5 -11 9 -37 8 -58
-1 -35 -1 -36 -5 -7 -2 18 -12 39 -22 48 -17 16 -21 16 -56 -4 -41 -23 -69
-54 -99 -110 -31 -58 -124 -214 -140 -235 -15 -19 -15 -19 -16 11 0 17 8 42
18 55 10 13 47 76 81 139 77 143 114 178 188 179 22 1 36 -5 43 -18z m-420
-156 l0 -144 -37 -6 c-21 -4 -60 -11 -86 -16 -26 -5 -50 -9 -52 -9 -6 0 43
127 76 197 30 64 74 123 90 123 5 0 9 -64 9 -145z m-1220 54 c0 -27 -4 -49
-10 -49 -5 0 -10 25 -10 56 0 34 4 53 10 49 6 -3 10 -28 10 -56z m1604 34 c11
-54 16 -99 20 -158 3 -33 8 -84 12 -113 l7 -53 -40 20 c-21 12 -72 29 -113 40
-41 10 -76 23 -78 29 -5 15 116 214 146 239 35 29 39 29 46 -4z m-1259 -110
c15 -43 38 -97 51 -120 13 -23 24 -44 24 -47 0 -3 -32 -6 -70 -6 -81 0 -90 8
-72 68 6 20 17 70 23 110 7 39 13 72 14 72 1 0 15 -35 30 -77z m-567 42 c-3
-3 -9 2 -12 12 -6 14 -5 15 5 6 7 -7 10 -15 7 -18z m174 -46 c2 -12 11 -27 21
-33 22 -14 51 3 55 33 4 25 9 26 64 4 57 -22 123 -76 138 -113 7 -18 11 -57 8
-95 -6 -95 -33 -124 -194 -205 -71 -36 -163 -85 -204 -109 -174 -100 -173 -99
-190 -162 -6 -20 -18 -40 -27 -43 -24 -9 -27 0 -9 26 20 29 21 92 0 112 -41
41 -124 -2 -124 -64 0 -21 -4 -30 -12 -28 -26 9 -19 45 16 81 37 39 41 55 50
169 6 76 30 130 108 248 67 100 108 142 131 136 27 -7 47 3 47 24 0 14 11 21
43 28 66 15 75 14 79 -9z m1715 -91 c-3 -7 -5 -2 -5 12 0 14 2 19 5 13 2 -7 2
-19 0 -25z m-1027 -50 c17 -35 35 -67 41 -72 19 -20 8 -24 -33 -12 l-43 12 0
67 c0 37 1 67 2 67 1 0 16 -28 33 -62z m1044 -13 c51 -278 62 -330 100 -440
83 -242 130 -303 298 -383 53 -26 97 -52 98 -59 0 -6 -18 -14 -39 -18 -54 -9
-100 17 -181 102 -177 185 -202 242 -259 588 -22 138 -36 252 -28 245 3 -3 8
-18 11 -35z m-2064 -12 c0 -5 -19 -35 -41 -68 l-41 -60 7 45 c7 46 38 90 62
90 7 0 13 -3 13 -7z m1607 -9 c7 -18 -109 -141 -166 -176 l-34 -21 -28 34
c-15 19 -24 38 -20 44 5 5 16 31 26 58 10 26 20 47 24 47 3 1 29 7 56 15 71
19 134 19 142 -1z m272 -14 c137 -42 147 -53 166 -170 8 -52 20 -125 27 -162
12 -65 11 -67 -13 -87 -36 -30 -161 -76 -279 -103 -9 -2 -16 10 -21 32 -25
119 -50 266 -57 335 l-9 80 35 53 c19 28 39 52 45 52 5 0 53 -13 106 -30z
m-1038 -24 c173 -29 255 -63 282 -119 30 -60 21 -67 -85 -67 -76 0 -102 -4
-143 -24 -28 -13 -58 -31 -68 -40 -21 -21 -22 -69 -2 -86 20 -17 93 -7 145 20
47 24 110 27 110 5 0 -8 -20 -26 -44 -40 -75 -44 -280 -55 -444 -23 -67 12
-171 59 -199 90 l-23 24 63 29 c131 60 217 141 217 205 0 15 3 30 7 33 10 11
92 8 184 -7z m467 -13 c-26 -54 -33 -63 -55 -63 -31 0 -29 8 10 41 31 27 52
37 45 22z m284 -112 c-23 -31 -137 -111 -158 -111 -8 0 -14 10 -14 25 0 18 11
30 43 49 23 14 65 48 92 76 l50 51 3 -32 c2 -20 -4 -42 -16 -58z m-344 -3
c-52 -83 -60 -100 -54 -123 6 -25 38 -41 57 -29 6 4 27 40 46 81 l35 75 24
-23 c19 -18 24 -32 24 -73 0 -53 -4 -62 -32 -84 -24 -19 -118 -52 -148 -52
-25 0 -25 1 -26 93 0 51 -4 104 -7 119 -6 24 -4 27 25 31 74 9 72 9 56 -15z
m387 -139 c8 -63 21 -136 30 -163 27 -87 27 -86 -75 -86 -102 0 -113 4 -233
78 l-87 55 47 22 c27 12 60 36 75 53 16 18 44 39 65 47 51 21 143 84 150 101
9 25 13 12 28 -107z m-497 -14 c2 -49 -4 -77 -33 -155 -86 -225 -109 -375 -72
-461 17 -39 71 -95 160 -165 31 -25 57 -49 57 -53 0 -21 -83 -27 -143 -10 -32
9 -42 19 -69 72 -31 60 -32 67 -36 208 -5 174 7 262 46 337 28 54 53 124 66
184 14 61 -59 86 -134 48 -46 -24 -125 -37 -133 -23 -10 16 37 53 84 68 26 8
78 13 124 12 l80 -2 3 -60z m-712 -126 c-7 -53 -127 -312 -165 -356 -26 -31
-37 -29 -17 1 17 27 44 74 87 153 15 28 40 91 54 140 35 117 33 113 41 113 4
0 4 -23 0 -51z m-211 11 c24 -46 18 -89 -22 -167 -20 -40 -38 -72 -39 -70 -1
1 6 27 16 57 12 35 19 83 20 133 0 42 2 77 5 77 2 0 11 -13 20 -30z m570 -40
c9 -14 -67 -150 -128 -230 -63 -81 -153 -170 -173 -170 -9 0 20 34 64 75 92
87 138 151 177 250 15 39 29 73 32 78 6 10 21 9 28 -3z m-785 -489 c-17 -32
-40 -66 -50 -76 -27 -24 -93 -26 -98 -3 -2 12 13 25 55 47 32 16 71 43 87 60
17 17 31 31 33 31 2 0 -10 -26 -27 -59z"></path>
<path class="node" id="node2" d="M705 1410 c-69 -43 -154 -161 -169 -236 -10 -44 20 -69 71 -59 75 14
117 49 178 150 30 51 35 67 33 110 l-3 50 -40 2 c-25 1 -51 -5 -70 -17z m55
-50 c-11 -22 -49 -63 -86 -92 -60 -48 -65 -56 -62 -85 3 -29 1 -33 -19 -33
-17 0 -23 6 -23 20 0 49 93 180 148 209 57 31 65 27 42 -19z"></path>
</g>
<g transform="translate(0.000000,225.000000) scale(0.100000,-0.100000)" fill="#E1D458" stroke="none">

<path class="node" id="node4" d="M495 2080 c3 -5 18 -10 33 -9 24 0 25 1 7 9 -28 12 -47 12 -40 0z"></path>
<path class="node" id="node5" d="M615 2045 c22 -8 55 -30 73 -49 l32 -36 0 44 0 43 -52 7 c-81 9 -97
7 -53 -9z"></path>
<path class="node" id="node6" d="M312 1953 c8 -10 25 -37 38 -60 13 -24 25 -42 26 -40 7 7 -29 93 -43
105 -25 18 -38 15 -21 -5z"></path>
<path class="node" id="node7" d="M1912 1755 c-52 -37 -88 -115 -177 -382 -27 -80 -52 -135 -109 -235
-21 -38 -33 -68 -28 -68 14 0 125 220 163 322 16 45 36 96 44 113 8 16 21 48
30 69 24 61 84 146 111 158 19 9 28 8 43 -6 17 -15 19 -40 24 -294 5 -231 10
-300 31 -417 35 -202 99 -408 174 -558 24 -50 47 -109 50 -131 2 -23 9 -48 13
-57 9 -18 146 -99 187 -111 24 -7 26 -9 -106 132 -38 40 -58 68 -111 150 -70
108 -147 340 -193 581 -19 103 -21 144 -20 418 2 214 -1 308 -9 317 -15 19
-89 18 -117 -1z"></path>
<path class="node" id="node8" d="M1320 1750 c-1 -3 -6 -84 -11 -180 -5 -96 -10 -188 -12 -204 -1 -16
4 -31 11 -33 9 -4 12 21 12 101 0 88 3 106 15 106 9 0 25 -23 39 -53 26 -59
132 -243 144 -251 5 -3 14 -1 20 3 10 6 -7 49 -63 166 -42 87 -87 192 -100
234 -21 65 -52 128 -55 111z"></path>
<path class="node" id="node9" d="M1038 1728 c-10 -9 -18 -37 -22 -83 -4 -38 -12 -94 -18 -123 -10 -46
-7 -74 7 -60 3 2 10 50 17 106 6 56 15 107 19 114 14 22 35 -9 64 -90 38 -108
102 -242 114 -242 6 0 11 1 11 3 0 4 -69 167 -90 212 -10 22 -32 70 -49 108
-17 37 -32 67 -34 67 -2 0 -10 -6 -19 -12z"></path>
<path class="node" id="node10" d="M2295 1720 c-44 -19 -76 -60 -136 -170 -34 -63 -71 -126 -81 -139
-10 -13 -18 -38 -18 -55 1 -30 1 -30 16 -11 16 21 109 177 140 235 30 56 58
87 99 110 35 20 39 20 56 4 10 -9 20 -30 22 -48 4 -29 4 -28 5 7 3 55 -12 77
-51 76 -18 0 -41 -4 -52 -9z"></path>

<path class="node" id="node12" d="M730 1616 c0 -31 5 -56 10 -56 6 0 10 22 10 49 0 28 -4 53 -10 56 -6
4 -10 -15 -10 -49z"></path>


<path class="node" id="node15" d="M516 1587 c3 -10 9 -15 12 -12 3 3 0 11 -7 18 -10 9 -11 8 -5 -6z"></path>
<path class="node" id="node16" d="M623 1538 c-32 -7 -43 -14 -43 -28 0 -21 -20 -31 -47 -24 -23 6 -64
-36 -131 -136 -78 -118 -102 -172 -108 -248 -9 -114 -13 -130 -50 -169 -35
-36 -42 -72 -16 -81 8 -2 12 7 12 28 0 62 83 105 124 64 21 -20 20 -83 0 -112
-18 -26 -15 -35 9 -26 9 3 21 23 27 43 17 63 16 62 190 162 41 24 133 73 204
109 161 81 188 110 194 205 3 38 -1 77 -8 95 -15 37 -81 91 -138 113 -55 22
-60 21 -64 -4 -4 -30 -33 -47 -55 -33 -10 6 -19 21 -21 33 -4 23 -13 24 -79 9z
m195 -163 c2 -43 -3 -59 -33 -110 -61 -101 -103 -136 -178 -150 -29 -6 -42 -3
-58 11 -25 23 -19 58 27 139 58 105 132 165 199 162 l40 -2 3 -50z"></path>
<path class="node" id="node17" d="M718 1379 c-55 -29 -148 -160 -148 -209 0 -14 6 -20 23 -20 20 0 22
4 19 33 -3 29 2 37 62 85 37 29 75 70 86 92 23 46 15 50 -42 19z"></path>
<path class="node" id="node18" d="M2412 1450 c0 -14 2 -19 5 -12 2 6 2 18 0 25 -3 6 -5 1 -5 -13z"></path>

<path class="node" id="node20" d="M2425 1350 c3 -36 15 -119 26 -185 57 -346 82 -403 259 -588 81 -85
127 -111 181 -102 21 4 39 12 39 18 -1 7 -45 33 -98 59 -168 80 -215 141 -298
383 -38 110 -49 162 -100 440 -11 56 -16 40 -9 -25z"></path>
<path class="node" id="node21" d="M323 1348 c-12 -13 -24 -43 -28 -68 l-7 -45 41 60 c22 33 41 63 41
68 0 15 -27 6 -47 -15z"></path>
<path class="node" id="node22" d="M1835 1355 c-27 -8 -53 -14 -56 -15 -4 0 -14 -21 -24 -47 -10 -27
-21 -53 -26 -58 -4 -6 5 -25 20 -44 l28 -34 34 21 c57 35 173 158 166 176 -8
20 -71 20 -142 1z"></path>
<path class="node" id="node23" d="M2098 1318 l-35 -53 9 -80 c7 -69 32 -216 57 -335 5 -22 12 -34 21
-32 118 27 243 73 279 103 24 20 25 22 13 87 -7 37 -19 110 -27 162 -13 82
-19 98 -43 118 -23 19 -199 82 -229 82 -6 0 -26 -24 -45 -52z"></path>
<path class="node" id="node24" d="M1027 1323 c-4 -3 -7 -18 -7 -33 0 -64 -86 -145 -217 -205 l-63 -29
23 -24 c28 -31 132 -78 199 -90 164 -32 369 -21 444 23 24 14 44 32 44 40 0
22 -63 19 -110 -5 -52 -27 -125 -37 -145 -20 -20 17 -19 65 2 86 10 9 40 27
68 40 41 20 67 24 143 24 106 0 115 7 85 67 -19 41 -52 61 -142 88 -110 33
-306 56 -324 38z"></path>
<path class="node" id="node25" d="M1633 1281 c-39 -33 -41 -41 -10 -41 22 0 29 9 55 63 7 15 -14 5 -45
-22z"></path>
<path class="node" id="node26" d="M1925 1230 c-27 -28 -69 -62 -92 -76 -32 -19 -43 -31 -43 -49 0 -35
19 -32 91 18 78 53 102 84 97 126 l-3 32 -50 -51z"></path>
<path class="node" id="node27" d="M1562 1203 c-29 -4 -31 -7 -25 -31 3 -15 7 -68 7 -119 1 -92 1 -93
26 -93 30 0 124 33 148 52 28 22 32 31 32 84 0 41 -5 55 -24 73 l-24 23 -35
-75 c-19 -41 -40 -77 -46 -81 -19 -12 -51 4 -57 29 -6 23 2 40 54 123 16 24
18 24 -56 15z"></path>
<path class="node" id="node28" d="M1977 1156 c-7 -17 -99 -80 -150 -101 -21 -8 -49 -29 -65 -47 -15
-17 -48 -41 -75 -53 l-47 -22 87 -55 c120 -74 131 -78 233 -78 102 0 102 -1
75 86 -9 27 -22 100 -30 163 -15 119 -19 132 -28 107z"></path>
<path class="node" id="node29" d="M1301 1085 c-47 -15 -94 -52 -84 -68 8 -14 87 -1 133 23 75 38 148
13 134 -48 -13 -60 -38 -130 -66 -184 -39 -75 -51 -163 -46 -337 4 -141 5
-148 36 -208 27 -53 37 -63 69 -72 60 -17 143 -11 143 10 0 4 -26 28 -57 53
-89 70 -143 126 -160 165 -37 86 -14 236 72 461 29 78 35 106 33 155 l-3 60
-80 2 c-46 1 -98 -4 -124 -12z"></path>
<path class="node" id="node30" d="M785 948 c-2 -7 -16 -53 -30 -101 -14 -49 -39 -112 -54 -140 -43 -79
-70 -126 -87 -153 -20 -30 -9 -32 17 -1 38 44 158 303 165 356 6 46 -1 70 -11
39z"></path>
<path class="node" id="node31" d="M560 873 c-1 -50 -8 -98 -20 -133 -10 -30 -17 -56 -16 -57 8 -9 76
148 76 175 0 30 -24 92 -35 92 -3 0 -5 -35 -5 -77z"></path>
<path class="node" id="node32" d="M1127 883 c-3 -5 -17 -39 -32 -78 -39 -99 -85 -163 -177 -250 -44
-41 -73 -75 -64 -75 20 0 110 89 173 170 61 80 137 216 128 230 -7 12 -22 13
-28 3z"></path>
<path class="node" id="node33" d="M364 419 c-16 -17 -55 -44 -87 -60 -42 -22 -57 -35 -55 -47 5 -23 71
-21 98 3 17 15 85 135 77 135 -2 0 -16 -14 -33 -31z"></path>
</g>
</svg>