
<svg xmlns="http://www.w3.org/2000/svg" xmlns:xlink="http://www.w3.org/1999/xlink" width="841.89px" height="595.28px" viewBox="0 0 841.89 595.28">
<g>
	<path style="position: relative;" id="path-0" clip-path="url(#SVGID_2_)" fill="#7B4610" d="M669.873,431.524c0,4.797-23.016,8.688-51.406,8.688
		c-28.39,0-51.405-3.892-51.405-8.688c0-4.799,23.016-8.688,51.405-8.688C646.857,422.836,669.873,426.726,669.873,431.524"></path>
	<path style="position: relative;" id="path-1" clip-path="url(#SVGID_2_)" fill="#713F0E" d="M444.166,515.043c0,9.083-61.628,16.447-137.651,16.447
		c-76.02,0-137.648-7.364-137.648-16.447c0-9.086,61.628-16.45,137.648-16.45C382.538,498.593,444.166,505.957,444.166,515.043"></path>
	<path style="position: relative;" id="path-2" clip-path="url(#SVGID_2_)" fill="#713F0E" d="M546.324,511.554c0,4.767-22.868,8.633-51.078,8.633
		c-28.209,0-51.077-3.866-51.077-8.633c0-4.769,22.868-8.633,51.077-8.633C523.456,502.921,546.324,506.785,546.324,511.554"></path>
	<path style="position: relative;" id="path-3" clip-path="url(#SVGID_2_)" fill="none" stroke="#000000" stroke-width="3.783" stroke-miterlimit="10" d="M224.581,331.743
		c-2.082-2.819-24.724,37.795-4.25,102.245c4.171,13.438,16.215,67.319,8.154,76.995c-4.323,5.186-12.458,7.208-16.426,0.897
		c-7.356-11.711,9.955-10.989,8.526-6.517"></path>
	<path style="position: relative;" id="path-4" clip-path="url(#SVGID_2_)" fill="none" stroke="#000000" stroke-width="3.808" stroke-miterlimit="10" d="M370.943,330.471
		c1.815-3.036,28.059,35.923,13.527,102.838c-2.933,13.944-10.029,69.425-1.121,78.467c4.777,4.844,13.063,6.152,16.439-0.579
		c6.265-12.485-10.911-10.195-9.084-5.809"></path>
	<path style="position: relative;" id="path-5" clip-path="url(#SVGID_2_)" fill="none" stroke="#000000" stroke-width="3.41" stroke-miterlimit="10" d="M371.333,326.174
		c0,3.123-3.681,5.655-8.219,5.655H230.118c-4.538,0-8.218-2.532-8.218-5.655c0-3.122,3.68-5.654,8.218-5.654h132.997
		C367.653,320.52,371.333,323.052,371.333,326.174z"></path>
	<path style="position: relative;" id="path-6" clip-path="url(#SVGID_2_)" d="M321.104,366.642c0.169,11.648,5.938,23.829,10.761,34.092
		c5.406,11.506,11.779,22.55,18.587,33.277c8.687,13.693,20.23,26.313,26.881,41.026c1.551,3.429,2.62,6.699,3.125,10.364
		c0.508,3.665,0.082,6.954-1.554,10.368c-1.355,2.833-4.649,5.809-5.299,8.727c5.78,1.669,15.535-3.761,18.119-9.441
		c1.595-3.515-1.166-7.384-2.207-10.542c-1.162-3.523-3.001-7.835-2.38-11.66c3.157,2.259,6.096,6.094,8.19,9.4
		c1.428,2.255,4.059,9.427,6.777,5.253c-5.289-7.291-8.879-15.117-13.547-22.767c-2.859-4.686-5.649-5.377-10.217-8.009
		c-8.701-6.999-13.884-27.72-17.113-35.445c-1.447-3.457-3.135-6.797-4.557-10.35c-1.804-4.518-2.331-13.47-6.038-16.335"></path>
	<path style="position: relative;" id="path-7" clip-path="url(#SVGID_2_)" d="M339.459,367.143c-5.033,10.503-5.61,23.977-5.547,35.315
		c0.071,12.873,1.582,24.743,2.898,37.377c1.68,16.131,5.313,33.265,4.718,49.403c-0.136,3.762-1.263,12.797-7.827,19.263
		c-2.236,2.203-6.748,3.127-8.629,5.452c4.429,4.069,15.583,3.554,20.425-0.384c2.994-2.438,2.245-7.131,2.72-10.422
		c0.528-3.672,0.803-8.35,3.062-11.5c1.823,3.43,2.744,8.171,3.147,12.066c0.274,2.651-1.279,11.201,3.727,7.719
		c-1.488-8.884-1.217-17.489-1.988-26.416c-0.474-5.472-0.729-7.49-3.649-11.88c-1.569-11.31-2.02-30.843-1.468-39.2
		c0.247-3.739,0.221-7.48,0.529-11.295c0.395-4.848,3.926-26.968,1.882-31.185"></path>
	<path style="position: relative;" id="path-8" clip-path="url(#SVGID_2_)" d="M234.4,219.621c-6.149-0.617-10.405-0.593-14.102,5.207
		c-2.915,4.571-0.217,10.565,0.524,15.529c0.78,5.219,0.577,11.076,0.071,16.333c-1.212,12.582-7.534,23.888-10.604,36.127
		c-2.211,8.821-3.129,17.817-4.877,26.77c-0.864,4.421-2.047,8.813-1.797,13.371c0.173,3.167-0.303,7.564,1.17,10.453
		c1.665,3.259,4.88,4.709,7.326,7.207c3.1,3.167,0.509,4.905-2.607,7.296c-4.243,3.257-9.083,6.189-13.98,8.335
		c-6.155,2.695-10.99,6.938-16.412,10.845c-4.621,3.327-9.681,6.442-13.595,10.514c-2.493,2.595-4.471,5.521-8.092,4.803
		c-4.979-0.989-10.11-5.205-13.429-8.815c-7.193-7.826-10.255-23.041-11.134-33.281c-1.143-13.313-0.004-26.026,2.505-39.049
		c2.847-14.769,6.727-30.417,12.63-44.271c6.561-15.404,15.61-27.555,27.974-38.908c5.635-5.177,11.457-10.149,17.498-14.852
		c4.852-3.777,11.751-6.501,8.493-13.654c-1.127-2.471-2.176-4.629-2.738-7.289c-1.286-6.094-0.858-11.078,1.947-16.878
		c3.771-7.791,7.554-12.994,15.714-16.35c6.197-2.548,13.107-2.067,19.085,0.627c3.203,1.443,15.831,13.655,17.348,5.366
		c1.631,2.528-0.433,4.125-2.243,5.513c2.655-0.686,4.933-3.061,5.064-5.897c3.009,2.718-0.162,6.161-2.482,8.096
		c0.5-0.184,1.523-0.068,2.057-0.227c0.245,1.456-0.402,2.84-1.497,3.666c1.041,0.156,2.162-0.065,2.99-0.597
		c-2.58,4.448-5.201,4.663-9.165,7.251c2.216,5.672-2.837,9.888,0.887,15.008c1.903,2.616,3.075,3.111-0.085,5.348
		c-2.356,1.668-4.228,2.143-4.132,5.669c-0.632,0.129-1.095,0.644-1.722,0.754c0.477,0.297,0.782,0.908,1.187,1.186
		c-2.471,2.517-0.067,5.293-1.679,7.782C241.025,220.88,236.547,219.835,234.4,219.621"></path>
	<path style="position: relative;" id="path-9" clip-path="url(#SVGID_2_)" d="M159.32,390.516c2.057,1.623,55.972,3.799,65.899,4.313
		c5.727,1.813-29.316,38.548-34.904,47.05c-9.957,15.151-21.684,29.856-29.698,46.075c-0.961,1.944-1.919,3.126-2.181,5.309
		c4.744,4.591,16.172,5.073,22.444,6.693c9.962,2.57,14.681-12.104,19.083-19.438c4.83-8.053,32.736-47.438,34.303-49.313
		c1.016,13.905-0.995,29.355-2.377,43.171c-1.081,10.813-0.126,21.225,0.07,31.988c9.841,0.783,20.283,1.682,29.615-1.341
		c4.725-1.531,3.77-3.321,3.77-8.484c0-4.318,0.31-8.793-0.106-13.076c-1.512-15.591-2.194-80.091-6.02-95.303
		c-1.785-7.096-2.556-14.818-8.024-20.285c-4.606-4.605-20.956-14.35-48.049-16.941"></path>
	<path style="position: relative;" id="path-10" clip-path="url(#SVGID_2_)" d="M296.68,517.036h-40.761l-5.182-2.592l-0.472,2.357h-14.608l0.472-14.844l28.037-3.063
		c0,0,8.482,7.067,15.315,8.717C279.481,507.612,297.387,507.377,296.68,517.036"></path>
	<path style="position: relative;" id="path-11" clip-path="url(#SVGID_2_)" d="M218.498,521.442l-39.416-10.381l-4.353-3.827l-1.055,2.16l-14.126-3.724l4.236-14.231
		l27.891,4.179c0,0,6.405,8.995,12.59,12.328C204.265,507.946,221.642,512.28,218.498,521.442"></path>
	<path style="position: relative;" id="path-12" clip-path="url(#SVGID_2_)" d="M205.813,284.964c5.894-1.273,11.389-6.064,16.353-9.354
		c5.563-3.686,9.955-7.789,15.079-11.945c3.61-2.929,7.098-5.817,10.272-9.25c2.059-2.228,2.218-3.412,4.867-1.808
		c1.854,1.124,4.022,3.549,5.585,5.009c2.108,1.97,8.192,7.854,7.624,10.769c-0.472,2.417-5.34,6.003-7.011,7.783
		c-2.806,2.989-5.777,5.615-9.032,8.161c-6.224,4.863-11.961,10.848-17.661,16.106c-4.753,4.382-10.184,7.646-14.836,12.104
		c-3.241,3.103-6.023,6.435-9.582,9.266c-3.401,2.702-8.759,3.375-11.709,6.196"></path>
	<path style="position: relative;" id="path-13" clip-path="url(#SVGID_2_)" d="M202.358,323.604c12.366-2.633,26.651-0.028,38.907,0.58c0.82-3.362,0.96-6.99,1.617-10.319
		c0.568-2.869,2.517-7.168,2.152-9.997c-3.111-1.128-7.447-0.817-10.703-0.996c-4.509-0.249-9.011-2.216-13.439-2.201"></path>
	<path style="position: relative;" id="path-14" clip-path="url(#SVGID_2_)" d="M259.381,262.782c1.439-1.432,2.298-3.688,3.946-4.954c1.778-1.361,4.742-2.012,6.898-2.54
		c3.333-0.815,7.246-0.437,10.307-1.989c3.477-1.764,11.153-7.314,9.868-11.663c-0.409-1.38-1.442-2.67-1.299-3.03
		c-1.683-0.463-1.614-1.039-3.567-0.798c-1.54,0.191-2.563,1.232-3.759,2.165c-1.65,1.288-9.246,6.984-10.205,3.179
		c-0.366-1.456,2.731-5.252,2.654-6.994c-0.045-1.004-0.586-4.489-2.356-4.256c-1.387,0.182-0.077,3.684-0.649,4.785
		c-0.657,1.267-2.49,2.051-3.539,2.823c-2.735,2.009-4.518,3.81-5.936,6.786c-0.806,1.689-6.862,7.288-7.546,8.945"></path>
	<path style="position: relative;" id="path-15" clip-path="url(#SVGID_2_)" d="M239.664,317.714c5.953,0,13.797,4.569,20.49,0.483c6.249-3.814,12.719-4.498,19.997-3.583
		c0.236-2.272-4.609-2.712-5.652-3.026c2.052-0.217,3.332,1.335,5.133,1.659c0.324-2.76-6.286-4.396-8.143-4.54
		c1.407-0.469,3.306,0.593,4.734,0.807c-0.924-3.636-13.027-5.288-16.151-4.95c-4.775,0.516-13.213,5.618-17.937,3.004"></path>
	<rect id="rect-1" x="127.278" y="390.044" clip-path="url(#SVGID_2_)" width="79.636" height="16.021"></rect>
	<path style="position: relative;" id="path-16" clip-path="url(#SVGID_2_)" d="M231.571,386.98c0,2.474-2.004,4.477-4.476,4.477h-33.927c-2.472,0-4.477-2.003-4.477-4.477
		c0-2.471,2.005-4.477,4.477-4.477h33.927C229.567,382.504,231.571,384.51,231.571,386.98"></path>
	<rect id="rect-2" x="365.398" y="389.572" clip-path="url(#SVGID_2_)" width="79.634" height="16.021"></rect>
	<path style="position: relative;" id="path-17" clip-path="url(#SVGID_2_)" d="M443.619,386.51c0,2.473-3.591,4.477-8.02,4.477h-60.771c-4.428,0-8.018-2.004-8.018-4.477
		c0-2.472,3.59-4.477,8.018-4.477H435.6C440.028,382.033,443.619,384.038,443.619,386.51"></path>
	<path style="position: relative;" id="path-18" clip-path="url(#SVGID_2_)" d="M350.817,209.893c0.123,1.902-6.166,4.551-5.721,5.879c0.42,1.255,2.73,1.055,3.134,3.069
		c0.492,2.45-1.754,3.235-1.141,3.969c1.416,0.943-0.721,1.106-0.007,1.632c2.316,1.638-0.119,2.882,0.43,4.294
		c0.776,1.995,2.492,1.658,4.483,1.655c3.746-0.004,7.547-1.163,11.067,0.294c5.882,2.435,11.023,10.711,12.443,16.416
		c2.185-0.958,2.867-3.695,5.235-4.753c2.672-1.195,7.03-1.06,10.024-1.253c-1.299-0.812-14.772-9.415-11.498-13.348
		c1.898-2.279,6.098-1.667,8.778-3.075c3.166-1.665,4.646-4.278,5.459-7.68c1.899,0.339,3.762,1.363,5.561-0.084
		c1.695-1.365,1.957-4.11,2.209-6.037c4.362-0.281,9.94-6.084,8.481-10.579c2.02-1.412,3.575-2.41,3.982-5.059
		c0.401-2.615-0.623-5.069-3.517-5.167c1.035-3.215,1.136-7.545-3.761-7.538c0.246-2.394,2.386-4.521-0.034-6.81
		c-2.031-1.926-5.843-1.929-7.732-0.012c0.458-4.779-8.097-5.583-8.949-1.172c-0.468-4.445-5.817-2.607-5.753,1.407
		c-2.732-1.521-2.495,3.822-2.532,5.361c-3.671-4.892-9.084-5.667-13.966-2.326c-2.417,1.655-3.719,3.506-5.661,5.643
		c-1.523,1.673-6.694,3.633-6.35-0.389c-2.304,1.694,0.358,3.223,1.838,3.988c-0.692,0.464-1.289,1.327-1.554,1.884
		C355.765,190.102,349.818,194.438,350.817,209.893"></path>
	<path style="position: relative;" id="path-19" clip-path="url(#SVGID_2_)" d="M397.024,300.207c-5.606,3.019-11.637,6.693-17.278,9.991
		c-4.916,2.873-9.475,5.341-14.766,7.566c-9.987,4.202-19.256,4.135-29.299-0.082c-5.197-2.18-9.411-4.986-14.923-5.608
		c-5.239-0.591-11.099-0.195-16.036-1.868c0.225-3.294,11.318-4.094,14.063-4.031c4.623,0.104,10.114,1.476,14.218,2.986
		c10.166,3.74,18.447,7.479,28.452,1.64c5.206-3.04,9.94-5.614,14.2-9.975c2.076-2.123,4.343-3.936,6.519-6.039
		c3.954-3.826,3.775-11.123,7.236-15.33"></path>
	<path style="position: relative;" id="path-20" clip-path="url(#SVGID_2_)" fill="none" stroke="#000000" stroke-width="3.77" stroke-miterlimit="10" d="M426.185,387.688
		c9.024-9.392,10.365-27.792,11.309-40.525c1.885-25.445-8.011-43.822,9.896-90c3.664-6.14,15.83-16.396,21.676-11.781
		c6.115,4.828-2.245,9.135-5.184,13.665c-11.308,17.435-11.997,23.747-16.021,40.525c-3.904,16.266-5.946,83.364-4.713,94.713"></path>
	<path style="position: relative;" id="path-21" clip-path="url(#SVGID_2_)" fill="none" stroke="#000000" stroke-width="3.77" stroke-miterlimit="10" d="M432.311,403.709
		c1.363-1.704,14.607,24.033,0.353,63.591c-2.911,8.25-11.654,41.438-6.832,47.628c2.583,3.318,7.625,4.76,10.249,0.929
		c4.863-7.105-5.977-7.05-5.184-4.239"></path>
	<path style="position: relative;" id="path-22" clip-path="url(#SVGID_2_)" fill="none" stroke="#000000" stroke-width="3.77" stroke-miterlimit="10" d="M372.496,401.043
		c-1.215-1.813-16.572,22.721-5.687,63.336c2.208,8.465,8.137,42.268,2.811,48.032c-2.855,3.091-7.999,4.103-10.288,0.065
		c-4.253-7.487,6.544-6.523,5.517-3.789"></path>
	<path style="position: relative;" id="path-23" clip-path="url(#SVGID_2_)" fill="none" stroke="#000000" stroke-width="3.77" stroke-miterlimit="10" d="M145.26,387.9
		c-8.679-9.714-9.352-28.15-9.833-40.909c-0.96-25.497,9.594-43.503-6.625-90.302c-3.439-6.268-15.226-16.959-21.234-12.558
		c-6.287,4.604,1.911,9.211,4.684,13.844c10.669,17.834,11.127,24.166,14.542,41.079c3.31,16.396,2.919,83.525,1.274,94.821"></path>
	<path style="position: relative;" id="path-24" clip-path="url(#SVGID_2_)" fill="none" stroke="#000000" stroke-width="3.77" stroke-miterlimit="10" d="M139.186,401.802
		c-1.302-1.752-15.469,23.488-2.659,63.537c2.611,8.35,10.145,41.832,5.102,47.844c-2.706,3.224-7.795,4.48-10.276,0.558
		c-4.604-7.276,6.227-6.828,5.333-4.049"></path>
	<path style="position: relative;" id="path-25" clip-path="url(#SVGID_2_)" fill="none" stroke="#000000" stroke-width="3.77" stroke-miterlimit="10" d="M197.172,403.19
		c1.282-1.766,15.737,23.306,3.388,63.501c-2.514,8.38-9.663,41.945-4.552,47.898c2.742,3.191,7.844,4.39,10.28,0.439
		c4.521-7.329-6.306-6.757-5.378-3.987"></path>
	<path style="position: relative;" id="path-26" clip-path="url(#SVGID_2_)" fill="none" stroke="#000000" stroke-width="1.885" stroke-miterlimit="10" d="M455.871,508.791
		c3.104,1.393,2.696-3.388-2.274-2.275c-2.979,7.385,5.38,12.925,8.4,5.102l18.848-137.594"></path>
	<path style="position: relative;" id="path-27" clip-path="url(#SVGID_2_)" fill="none" stroke="#000000" stroke-width="1.7" stroke-miterlimit="10" d="M491.122,503.699
		c2.771,1.005,1.86-3.516-2.178-1.938c-1.617,7.365,6.048,11.784,7.65,3.999l-0.56-133.391"></path>
	<path style="position: relative;" id="path-28" clip-path="url(#SVGID_2_)" fill="none" stroke="#000000" stroke-width="1.885" stroke-miterlimit="10" d="M530.72,509.415
		c-3.124,1.349-2.646-3.424,2.308-2.242c2.87,7.43-5.569,12.847-8.473,4.98l-16.839-137.854"></path>
	<path style="position: relative;" id="path-29" clip-path="url(#SVGID_2_)" d="M478.019,373.552c0,0,18.612,7.539,33.69,0.235l5.42-56.073h-44.765L478.019,373.552z"></path>
	<path style="position: relative;" id="path-30" clip-path="url(#SVGID_2_)" d="M519.72,318.655c0,0.911-0.739,1.649-1.648,1.649h-45.707c-0.913,0-1.65-0.738-1.65-1.649
		s0.737-1.649,1.65-1.649h45.707C518.98,317.006,519.72,317.744,519.72,318.655"></path>
	<rect id="rect-3" x="509.824" y="364.245" clip-path="url(#SVGID_2_)" width="8.717" height="2.827"></rect>
	<rect id="rect-4" x="470.007" y="364.245" clip-path="url(#SVGID_2_)" width="8.718" height="2.827"></rect>
	<path style="position: relative;" id="path-31" clip-path="url(#SVGID_2_)" fill="#FF382E" d="M194.048,213.2c1.088-0.226,11.362,1.461,17.864,8.896
		c3.482,2.827,5.557,8.584,7.296,12.229c-0.974-6.841,2.483-9.611,2.451-10.412c-0.036-0.902-1.321-2.441-1.766-3.243
		c-2.755-4.968-13.021-12.34-20.822-11.861c-1.754,0.407-4.043,2.707-4.861,4.228"></path>
	<path style="position: relative;" id="path-32" clip-path="url(#SVGID_2_)" fill="none" stroke="#000000" stroke-width="0.974" stroke-miterlimit="10" d="M194.756,213.234
		c1.088-0.226,11.362,1.461,17.864,8.896c3.482,2.827,5.557,8.584,7.296,12.229c-0.974-6.841,2.483-9.611,2.451-10.412
		c-0.036-0.902-1.321-2.441-1.766-3.243c-2.755-4.968-13.021-12.34-20.822-11.861c-1.754,0.407-4.043,2.707-4.861,4.228"></path>
	<path style="position: relative;" id="path-33" clip-path="url(#SVGID_2_)" fill="#FF382E" d="M244.55,258.295c0,0,10.227,7.143,13.148,13.635l4.221-3.247
		c0,0-2.598-8.44-12.337-14.608C249.582,254.075,245.687,256.347,244.55,258.295"></path>
	<path style="position: relative;" id="path-34" clip-path="url(#SVGID_2_)" fill="none" stroke="#000000" stroke-width="0.649" stroke-miterlimit="10" d="M243.55,258.295
		c0,0,10.227,7.143,13.148,13.635l4.221-3.247c0,0-2.598-8.44-12.337-14.608C248.582,254.075,244.687,256.347,243.55,258.295z"></path>
	<polygon clip-path="url(#SVGID_2_)" fill="#FF382E" points="238.401,304.528 235.317,319.624 240.998,319.624 243.433,304.964 	"></polygon>
	<polygon clip-path="url(#SVGID_2_)" fill="none" stroke="#000000" stroke-width="0.614" stroke-miterlimit="10" points="
		237.656,305.505 234.572,320.601 240.253,320.601 242.688,305.94 	"></polygon>
	<path style="position: relative;" id="path-35" clip-path="url(#SVGID_2_)" fill="#FF382E" d="M378.479,222.617c0,0.479-0.388,0.866-0.866,0.866s-0.866-0.387-0.866-0.866
		s0.388-0.866,0.866-0.866S378.479,222.138,378.479,222.617"></path>
	<path style="position: relative;" id="path-36" clip-path="url(#SVGID_2_)" fill="#FF382E" d="M382.105,226.865c0,0.479-0.388,0.866-0.866,0.866
		c-0.478,0-0.866-0.387-0.866-0.866c0-0.478,0.388-0.866,0.866-0.866C381.717,225.999,382.105,226.387,382.105,226.865"></path>
	<path style="position: relative;" id="path-37" clip-path="url(#SVGID_2_)" fill="#FF382E" d="M379.254,225.553c0,0.479-0.388,0.866-0.867,0.866
		c-0.478,0-0.865-0.387-0.865-0.866c0-0.478,0.387-0.865,0.865-0.865C378.866,224.688,379.254,225.075,379.254,225.553"></path>
	<path style="position: relative;" id="path-38" clip-path="url(#SVGID_2_)" fill="#FF382E" d="M384.798,225.756c0,0.479-0.388,0.866-0.867,0.866
		c-0.478,0-0.865-0.387-0.865-0.866s0.387-0.866,0.865-0.866C384.41,224.89,384.798,225.277,384.798,225.756"></path>
	<path style="position: relative;" id="path-39" clip-path="url(#SVGID_2_)" fill="#FF382E" d="M385.934,223.159c0,0.479-0.388,0.866-0.866,0.866s-0.866-0.387-0.866-0.866
		s0.388-0.866,0.866-0.866S385.934,222.68,385.934,223.159"></path>
	<path style="position: relative;" id="path-40" clip-path="url(#SVGID_2_)" fill="#FF382E" d="M385.407,220.452c0,0.479-0.388,0.866-0.866,0.866
		c-0.479,0-0.866-0.387-0.866-0.866c0-0.478,0.387-0.865,0.866-0.865C385.019,219.587,385.407,219.974,385.407,220.452"></path>
	<path style="position: relative;" id="path-41" clip-path="url(#SVGID_2_)" fill="#FF382E" d="M382.972,219.154c0,0.479-0.388,0.866-0.867,0.866
		c-0.478,0-0.865-0.387-0.865-0.866c0-0.478,0.387-0.865,0.865-0.865C382.584,218.289,382.972,218.676,382.972,219.154"></path>
	<path style="position: relative;" id="path-42" clip-path="url(#SVGID_2_)" fill="#FF382E" d="M380.05,219.965c0,0.479-0.389,0.866-0.866,0.866
		c-0.478,0-0.867-0.387-0.867-0.866c0-0.478,0.389-0.866,0.867-0.866C379.661,219.1,380.05,219.487,380.05,219.965"></path>
	<path style="position: relative;" id="path-43" clip-path="url(#SVGID_2_)" fill="#B8CD00" d="M380.578,226.637c-0.032,0.478-0.444,0.839-0.922,0.808
		c-0.477-0.031-0.838-0.443-0.808-0.921c0.032-0.477,0.444-0.838,0.922-0.807C380.247,225.748,380.608,226.16,380.578,226.637"></path>
	<path style="position: relative;" id="path-44" clip-path="url(#SVGID_2_)" fill="#B8CD00" d="M378.617,224.078c0,0.479-0.388,0.866-0.867,0.866
		c-0.478,0-0.865-0.387-0.865-0.866c0-0.478,0.387-0.866,0.865-0.866C378.229,223.212,378.617,223.6,378.617,224.078"></path>
	<path style="position: relative;" id="path-45" clip-path="url(#SVGID_2_)" fill="#B8CD00" d="M378.942,221.075c0,0.479-0.389,0.866-0.867,0.866
		c-0.477,0-0.865-0.387-0.865-0.866c0-0.478,0.388-0.865,0.865-0.865C378.553,220.209,378.942,220.597,378.942,221.075"></path>
	<path style="position: relative;" id="path-46" clip-path="url(#SVGID_2_)" fill="#B8CD00" d="M381.458,219.208c0,0.479-0.388,0.866-0.866,0.866s-0.866-0.387-0.866-0.866
		c0-0.478,0.388-0.865,0.866-0.865S381.458,218.73,381.458,219.208"></path>
	<path style="position: relative;" id="path-47" clip-path="url(#SVGID_2_)" fill="#B8CD00" d="M384.217,219.614c0,0.479-0.388,0.866-0.866,0.866
		c-0.479,0-0.866-0.387-0.866-0.866s0.387-0.866,0.866-0.866C383.829,218.748,384.217,219.135,384.217,219.614"></path>
	<path style="position: relative;" id="path-48" clip-path="url(#SVGID_2_)" fill="#B8CD00" d="M385.841,221.887c0,0.479-0.389,0.866-0.867,0.866
		c-0.477,0-0.866-0.387-0.866-0.866s0.389-0.865,0.866-0.865C385.452,221.021,385.841,221.408,385.841,221.887"></path>
	<path style="position: relative;" id="path-49" clip-path="url(#SVGID_2_)" fill="#B8CD00" d="M385.49,224.47c0.007,0.479-0.375,0.873-0.853,0.88
		c-0.479,0.008-0.872-0.373-0.88-0.852c-0.007-0.478,0.374-0.872,0.852-0.88C385.087,223.611,385.481,223.992,385.49,224.47"></path>
	<path style="position: relative;" id="path-50" clip-path="url(#SVGID_2_)" fill="#B8CD00" d="M383.539,226.647c0,0.479-0.388,0.867-0.867,0.867
		c-0.478,0-0.865-0.388-0.865-0.867c0-0.478,0.387-0.865,0.865-0.865C383.151,225.782,383.539,226.169,383.539,226.647"></path>
	<path style="position: relative;" id="path-51" clip-path="url(#SVGID_2_)" fill="#834B12" d="M382.323,217.126c0,0.836-0.679,1.515-1.515,1.515
		c-0.837,0-1.515-0.679-1.515-1.515s0.678-1.515,1.515-1.515C381.644,215.611,382.323,216.29,382.323,217.126"></path>
	<path style="position: relative;" id="path-52" clip-path="url(#SVGID_2_)" fill="#000002" d="M373.881,280.864c-1.948-9.252,2.819-19.486,2.376-28.373
		c-0.193-3.854-1.128-7.417-2.863-11.071c-1.493-3.147-4.667-6.984-7.412-9.902c3.248-2.355,7.18-3.842,10.388-6.493
		c1.515,4.329,2.598,9.523,9.316,13.176c4.767,2.593,9.243,5.597,13.899,8.282c8.385,4.837,19.269,11.795,22.993,20.908
		c1.139,2.783,0.837,4.027,1.624,6.98c-4.738,2.026-11.439,6.752-16.293,7.971"></path>
	<path style="position: relative;" id="path-53" clip-path="url(#SVGID_2_)" fill="#FF1B2E" d="M425.338,271.936c-0.667-2.444-2.497-4.64-5.357-3.733
		c-2.934,0.929-0.405,3.562-2.194,5.3c-2.977-3.129-4.262-2.208-5.435,1.517c-2.292-2.379-5.403-3.188-6.612,0.679
		c-2.743-2.588-3.235-3.209-5.931-0.295c-1.921-4.296-4.498-2.81-6.363,0.639c-2.324-1.102-5.324-3.408-6.479,0.353
		c-0.567-2.6-4.377-3.629-4.543-0.297c-1.302-1.347-4.332-2.139-5.387,0.011c-3.128-1.588-3.409,2.725-3.381,4.776
		c0.042,2.906,1.327,5.202,2.867,7.558c3.122,4.778,8.245,8.7,10.711,13.91c1.965,4.148,4.046,11.331,4.343,15.952
		c0.352,5.501,2.466,10.731,1.948,16.232c-1.399,14.809-22.115,10.105-32.244,11.046c-10.493,0.978-23.115-0.238-31.834,6.51
		c-4.251,3.29-7.309,7.683-8.787,12.563c-0.568,1.87-1.838,5.534-0.929,7.58c1.008,2.269,3.961,1.553,6.322,3.369
		c4.386,3.377,3.822,10.393,8.549,13.696c5.605,3.921,13.783,2.366,16.855,9.633c1.826,4.317,1.437,7.109,6.274,9.363
		c1.721,0.8,3.794,1.014,5.122,2.514c1.299,1.458,1.734,4.245,2.547,6.033c1.29-2.277,0.155-5.905-0.119-8.496
		c-0.275-2.635-0.803-5.564-0.659-8.201c0.225-4.086,2.078-11.263,5.311-13.668c4.584-3.41,11.073-3.439,16.664-3.679
		c6.854-0.293,14.596,0.899,21.244-0.488c9.509-1.984,21.44-6.394,24.554-16.474c3.364-10.883-0.449-20.88-7.272-29.139
		c-4.112-4.978-4.13-28.663-3.879-34.544c0.448-10.495,3.934-19.798,3.933-30.384"></path>
	<path style="position: relative;" id="path-54" clip-path="url(#SVGID_2_)" fill="none" stroke="#000000" stroke-width="1.443" stroke-miterlimit="10" d="M425.338,271.936
		c-0.667-2.444-2.497-4.64-5.357-3.733c-2.934,0.929-0.405,3.562-2.194,5.3c-2.977-3.129-4.262-2.208-5.435,1.517
		c-2.292-2.379-5.403-3.188-6.612,0.679c-2.743-2.588-3.235-3.209-5.931-0.295c-1.921-4.296-4.498-2.81-6.363,0.639
		c-2.324-1.102-5.324-3.408-6.479,0.353c-0.567-2.6-4.377-3.629-4.543-0.297c-1.302-1.347-4.332-2.139-5.387,0.011
		c-3.128-1.588-3.409,2.725-3.381,4.776c0.042,2.906,1.327,5.202,2.867,7.558c3.122,4.778,8.245,8.7,10.711,13.91
		c1.965,4.148,4.046,11.331,4.343,15.952c0.352,5.501,2.466,10.731,1.948,16.232c-1.399,14.809-22.115,10.105-32.244,11.046
		c-10.493,0.978-23.115-0.238-31.834,6.51c-4.251,3.29-7.309,7.683-8.787,12.563c-0.568,1.87-1.838,5.534-0.929,7.58
		c1.008,2.269,3.961,1.553,6.322,3.369c4.386,3.377,3.822,10.393,8.549,13.696c5.605,3.921,13.783,2.366,16.855,9.633
		c1.826,4.317,1.437,7.109,6.274,9.363c1.721,0.8,3.794,1.014,5.122,2.514c1.299,1.458,1.734,4.245,2.547,6.033
		c1.29-2.277,0.155-5.905-0.119-8.496c-0.275-2.635-0.803-5.564-0.659-8.201c0.225-4.086,2.078-11.263,5.311-13.668
		c4.584-3.41,11.073-3.439,16.664-3.679c6.854-0.293,14.596,0.899,21.244-0.488c9.509-1.984,21.44-6.394,24.554-16.474
		c3.364-10.883-0.449-20.88-7.272-29.139c-4.112-4.978-4.13-28.663-3.879-34.544c0.448-10.495,3.934-19.798,3.933-30.384"></path>
	<path style="position: relative;" id="path-55" clip-path="url(#SVGID_2_)" fill="#000002" d="M391.857,254.64c-4.683,1.708-4.506,8.142-4.686,12.318
		c-0.211,4.898-1.102,9.305-1.772,13.955c-0.646,4.488-1.919,8.551-3.574,12.868c-1.524,3.974-2.556,8.564-4.602,12.214
		c-2.117-4.092-5.442-7.514-7.539-11.61c-2.17-4.236-3.931-8.731-5.735-13.149c-1.762-4.316-4.276-8.091-6.106-12.297
		c-1.775-4.081-3.21-8.414-6.439-11.858c-3.245-3.463-8.218-7.94-12.881-9.819c-5.099-2.055-10.801-1.856-15.976-4.328
		c1.857,4.79,6.558,5.706,10.62,8.194c3.536,2.165,8.188,4.916,10.761,8.101c3.143,3.89,4.948,9.779,7.22,14.168
		c2.301,4.447,3.633,9.3,5.251,13.79c1.773,4.917,4.238,9.683,5.986,14.558c1.617,4.51,3.349,10.191,6.743,13.793
		c8.747,9.285,17.464-1.872,20.072-10.419c2.875-9.421,4.269-19.69,8.49-28.665c3.778-8.023,8.619-22.188-4.887-22.133"></path>
	<path style="position: relative;" id="path-56" clip-path="url(#SVGID_2_)" d="M397.309,333.692c0,0,0.295-0.379,0.811-1.043c0.261-0.328,0.578-0.729,0.942-1.186
		c0.361-0.461,0.796-0.963,1.159-1.58c0.386-0.6,0.804-1.25,1.247-1.938c0.483-0.659,0.786-1.481,1.214-2.262
		c0.395-0.799,0.861-1.598,1.143-2.494c0.316-0.881,0.674-1.763,0.965-2.666c0.248-0.918,0.495-1.837,0.739-2.741
		c0.27-0.898,0.346-1.827,0.523-2.702c0.149-0.882,0.327-1.729,0.39-2.549c0.091-0.817,0.176-1.59,0.255-2.303
		c0.093-0.712,0.107-1.371,0.154-1.953c0.038-0.583,0.071-1.092,0.099-1.511c0.063-0.838,0.099-1.317,0.099-1.317
		s0.01,0.48,0.027,1.32c0.004,0.42,0.01,0.931,0.016,1.517c0,0.586,0.038,1.249-0.03,1.97c-0.046,0.72-0.096,1.501-0.149,2.327
		c-0.025,0.829-0.157,1.694-0.305,2.589c-0.165,0.889-0.229,1.829-0.488,2.747c-0.235,0.923-0.473,1.861-0.711,2.8
		c-0.31,0.916-0.689,1.811-1.024,2.703c-0.302,0.906-0.789,1.715-1.203,2.521c-0.439,0.795-0.793,1.602-1.317,2.258
		c-0.483,0.68-0.939,1.319-1.36,1.911c-0.393,0.613-0.864,1.077-1.26,1.508c-0.398,0.43-0.744,0.804-1.029,1.112
		C397.639,333.343,397.309,333.692,397.309,333.692"></path>
	<path style="position: relative;" id="path-57" clip-path="url(#SVGID_2_)" d="M393.089,338.563c0,0,0.11-0.045,0.317-0.129c0.214-0.063,0.493-0.252,0.912-0.317
		c0.412-0.091,0.923-0.203,1.502-0.247c0.584-0.078,1.239-0.099,1.949-0.136c0.709-0.029,1.47-0.083,2.252-0.202
		c0.781-0.134,1.564-0.359,2.308-0.731c0.823-0.398,1.536-0.862,2.242-1.411c0.707-0.555,1.376-1.188,1.961-1.899
		c0.616-0.683,1.149-1.446,1.648-2.214c0.495-0.771,0.961-1.552,1.385-2.325c0.849-1.563,1.642-3.021,2.321-4.271
		c0.678-1.259,1.368-2.243,1.83-2.935c0.509-0.661,0.8-1.039,0.8-1.039s-0.232,0.414-0.639,1.14
		c-0.394,0.73-0.907,1.795-1.503,3.083c-0.61,1.282-1.241,2.819-2.051,4.422c-0.409,0.798-0.836,1.628-1.349,2.43
		c-0.509,0.804-1.056,1.61-1.704,2.346c-0.63,0.746-1.357,1.418-2.125,2.006c-0.769,0.598-1.644,1.082-2.434,1.434
		c-0.858,0.407-1.767,0.585-2.601,0.668c-0.837,0.067-1.62,0.066-2.334,0.046c-0.714-0.001-1.366-0.06-1.937-0.05
		c-0.579-0.022-1.064,0.029-1.473,0.068c-0.411,0.021-0.725,0.151-0.944,0.186C393.205,338.536,393.089,338.563,393.089,338.563"></path>
	<path style="position: relative;" id="path-58" clip-path="url(#SVGID_2_)" d="M393.739,340.835c0,0,0.175,0.24,0.481,0.662c0.136,0.225,0.368,0.441,0.606,0.702
		c0.227,0.271,0.543,0.524,0.87,0.815c0.311,0.308,0.729,0.549,1.126,0.848c0.43,0.259,0.878,0.537,1.362,0.789
		c0.485,0.254,0.991,0.502,1.529,0.707c0.523,0.237,1.09,0.39,1.64,0.582c0.563,0.154,1.116,0.347,1.682,0.455
		c0.559,0.14,1.118,0.229,1.661,0.311c0.542,0.079,1.07,0.129,1.571,0.186c0.502,0.015,0.98,0.074,1.419,0.049
		c0.439-0.015,0.845,0.001,1.201-0.04c0.357-0.035,0.675-0.037,0.927-0.095c0.513-0.081,0.806-0.127,0.806-0.127
		s-0.284,0.091-0.78,0.251c-0.249,0.09-0.564,0.13-0.921,0.21c-0.358,0.089-0.768,0.125-1.217,0.166
		c-0.449,0.059-0.937,0.036-1.455,0.059c-0.515-0.019-1.064-0.021-1.623-0.1c-0.56-0.069-1.138-0.147-1.718-0.276
		c-0.585-0.099-1.161-0.28-1.746-0.429c-0.565-0.213-1.145-0.385-1.681-0.644c-0.55-0.226-1.07-0.496-1.565-0.771
		c-0.501-0.264-0.942-0.599-1.364-0.897c-0.393-0.343-0.8-0.62-1.101-0.964c-0.321-0.32-0.607-0.62-0.811-0.935
		c-0.213-0.302-0.418-0.548-0.524-0.785C393.875,341.1,393.739,340.835,393.739,340.835"></path>
	<path style="position: relative;" id="path-59" clip-path="url(#SVGID_2_)" fill="#FF382E" d="M345.975,261.235c0,0.479-0.388,0.866-0.867,0.866
		c-0.477,0-0.865-0.387-0.865-0.866c0-0.478,0.388-0.866,0.865-0.866C345.587,260.369,345.975,260.757,345.975,261.235"></path>
	<path style="position: relative;" id="path-60" clip-path="url(#SVGID_2_)" fill="#FF382E" d="M349.169,260.911c0,0.479-0.388,0.866-0.866,0.866
		c-0.477,0-0.866-0.387-0.866-0.866c0-0.478,0.389-0.865,0.866-0.865C348.781,260.046,349.169,260.433,349.169,260.911"></path>
	<path style="position: relative;" id="path-61" clip-path="url(#SVGID_2_)" fill="#FF382E" d="M351.875,259.288c0,0.479-0.389,0.866-0.867,0.866s-0.866-0.387-0.866-0.866
		s0.388-0.866,0.866-0.866S351.875,258.809,351.875,259.288"></path>
	<path style="position: relative;" id="path-62" clip-path="url(#SVGID_2_)" fill="#FF382E" d="M353.12,257.069c0,0.479-0.389,0.866-0.867,0.866s-0.866-0.387-0.866-0.866
		c0-0.478,0.388-0.865,0.866-0.865S353.12,256.591,353.12,257.069"></path>
	<path style="position: relative;" id="path-63" clip-path="url(#SVGID_2_)" fill="#B8CD00" d="M347.546,261.668c0,0.479-0.388,0.866-0.867,0.866
		c-0.478,0-0.865-0.387-0.865-0.866s0.387-0.866,0.865-0.866C347.158,260.802,347.546,261.189,347.546,261.668"></path>
	<path style="position: relative;" id="path-64" clip-path="url(#SVGID_2_)" fill="#B8CD00" d="M352.957,258.083c0.008,0.479-0.374,0.873-0.852,0.88
		c-0.478,0.008-0.872-0.374-0.88-0.852c-0.007-0.478,0.375-0.872,0.852-0.88C352.555,257.225,352.95,257.604,352.957,258.083"></path>
	<path style="position: relative;" id="path-65" clip-path="url(#SVGID_2_)" fill="#B8CD00" d="M350.684,260.153c0,0.479-0.388,0.866-0.866,0.866
		c-0.479,0-0.866-0.387-0.866-0.866c0-0.478,0.387-0.865,0.866-0.865C350.295,259.288,350.684,259.675,350.684,260.153"></path>
	<path style="position: relative;" id="path-66" clip-path="url(#SVGID_2_)" fill="#FF382E" d="M346.191,262.426c0,0.478-0.389,0.866-0.867,0.866s-0.865-0.388-0.865-0.866
		c0-0.479,0.387-0.866,0.865-0.866S346.191,261.947,346.191,262.426"></path>
	<path style="position: relative;" id="path-67" clip-path="url(#SVGID_2_)" fill="#FF382E" d="M352.089,260.911c0,0.479-0.388,0.866-0.865,0.866
		c-0.478,0-0.867-0.387-0.867-0.866c0-0.478,0.389-0.865,0.867-0.865C351.701,260.046,352.089,260.433,352.089,260.911"></path>
	<path style="position: relative;" id="path-68" clip-path="url(#SVGID_2_)" fill="#FF382E" d="M349.441,262.318c0,0.479-0.389,0.866-0.867,0.866s-0.866-0.387-0.866-0.866
		s0.388-0.866,0.866-0.866S349.441,261.839,349.441,262.318"></path>
	<path style="position: relative;" id="path-69" clip-path="url(#SVGID_2_)" fill="#FF382E" d="M354.417,258.909c0,0.479-0.388,0.866-0.866,0.866
		c-0.479,0-0.866-0.387-0.866-0.866s0.387-0.866,0.866-0.866C354.029,258.043,354.417,258.43,354.417,258.909"></path>
	<path style="position: relative;" id="path-70" clip-path="url(#SVGID_2_)" fill="#B8CD00" d="M350.847,261.722c0,0.479-0.388,0.867-0.866,0.867s-0.866-0.388-0.866-0.867
		c0-0.478,0.388-0.866,0.866-0.866S350.847,261.244,350.847,261.722"></path>
	<path style="position: relative;" id="path-71" clip-path="url(#SVGID_2_)" fill="#B8CD00" d="M347.871,262.913c0,0.479-0.389,0.866-0.867,0.866
		c-0.477,0-0.866-0.387-0.866-0.866s0.389-0.866,0.866-0.866C347.482,262.046,347.871,262.434,347.871,262.913"></path>
	<path style="position: relative;" id="path-72" clip-path="url(#SVGID_2_)" fill="#B8CD00" d="M354.471,257.867c0.008,0.479-0.374,0.872-0.852,0.88
		c-0.478,0.007-0.873-0.374-0.88-0.852c-0.008-0.478,0.374-0.872,0.853-0.88C354.069,257.008,354.464,257.389,354.471,257.867"></path>
	<path style="position: relative;" id="path-73" clip-path="url(#SVGID_2_)" fill="#B8CD00" d="M353.28,259.882c0,0.478-0.389,0.866-0.866,0.866
		c-0.478,0-0.867-0.388-0.867-0.866c0-0.479,0.389-0.866,0.867-0.866C352.891,259.016,353.28,259.403,353.28,259.882"></path>
	<path style="position: relative;" id="path-74" clip-path="url(#SVGID_2_)" fill="#FF382E" d="M347.002,263.846c0,0.479-0.389,0.866-0.866,0.866
		c-0.478,0-0.867-0.387-0.867-0.866c0-0.478,0.389-0.865,0.867-0.865C346.613,262.98,347.002,263.368,347.002,263.846"></path>
	<path style="position: relative;" id="path-75" clip-path="url(#SVGID_2_)" fill="#FF382E" d="M352.333,262.494c0,0.478-0.388,0.866-0.867,0.866
		c-0.477,0-0.865-0.388-0.865-0.866c0-0.479,0.388-0.866,0.865-0.866C351.945,261.628,352.333,262.015,352.333,262.494"></path>
	<path style="position: relative;" id="path-76" clip-path="url(#SVGID_2_)" fill="#FF382E" d="M349.969,263.698c0,0.478-0.389,0.866-0.867,0.866
		c-0.477,0-0.866-0.388-0.866-0.866c0-0.479,0.389-0.866,0.866-0.866C349.58,262.832,349.969,263.219,349.969,263.698"></path>
	<path style="position: relative;" id="path-77" clip-path="url(#SVGID_2_)" fill="#FF382E" d="M354.782,260.573c0,0.479-0.388,0.866-0.867,0.866
		c-0.477,0-0.865-0.387-0.865-0.866c0-0.478,0.388-0.866,0.865-0.866C354.394,259.707,354.782,260.095,354.782,260.573"></path>
	<path style="position: relative;" id="path-78" clip-path="url(#SVGID_2_)" fill="#B8CD00" d="M351.211,263.24c-0.032,0.477-0.443,0.838-0.921,0.808
		c-0.477-0.031-0.839-0.443-0.808-0.921c0.031-0.477,0.443-0.838,0.921-0.807C350.88,262.351,351.241,262.763,351.211,263.24"></path>
	<path style="position: relative;" id="path-79" clip-path="url(#SVGID_2_)" fill="#B8CD00" d="M348.764,264.008c0,0.479-0.389,0.867-0.867,0.867
		c-0.477,0-0.866-0.388-0.866-0.867c0-0.478,0.389-0.865,0.866-0.865C348.375,263.143,348.764,263.53,348.764,264.008"></path>
	<path style="position: relative;" id="path-80" clip-path="url(#SVGID_2_)" fill="#B8CD00" d="M355.474,259.287c0.007,0.478-0.375,0.872-0.853,0.879
		c-0.477,0.009-0.872-0.373-0.879-0.851c-0.008-0.479,0.374-0.872,0.851-0.88C355.072,258.428,355.466,258.808,355.474,259.287"></path>
	<path style="position: relative;" id="path-81" clip-path="url(#SVGID_2_)" fill="#B8CD00" d="M353.523,261.464c0,0.479-0.388,0.866-0.867,0.866
		c-0.477,0-0.865-0.387-0.865-0.866c0-0.478,0.388-0.865,0.865-0.865C353.135,260.6,353.523,260.986,353.523,261.464"></path>
	<path style="position: relative;" id="path-82" clip-path="url(#SVGID_2_)" fill="#000002" d="M421.914,270.74c-0.002-0.083-0.159-0.458-0.134-0.672
		c-1.022-0.805-1.271,0.361-0.989,1.13c0.313,0.86,1.017,1.191,1.032,2.186c0.449-0.624,1.389-1.316,1.709-2.067
		c0.588-1.384-1.359-1.953-1.502-0.923"></path>
	<path style="position: relative;" id="path-83" clip-path="url(#SVGID_2_)" fill="#000002" d="M414.884,275.533c-0.002-0.091-0.175-0.5-0.147-0.733
		c-1.112-0.878-1.385,0.394-1.08,1.233c0.342,0.937,1.11,1.298,1.127,2.383c0.492-0.68,1.517-1.436,1.864-2.254
		c0.641-1.509-1.482-2.13-1.637-1.006"></path>
	<path style="position: relative;" id="path-84" clip-path="url(#SVGID_2_)" fill="#000002" d="M408.391,276.832c-0.002-0.091-0.175-0.5-0.148-0.733
		c-1.111-0.879-1.385,0.394-1.079,1.233c0.342,0.937,1.109,1.298,1.127,2.383c0.492-0.68,1.516-1.436,1.863-2.255
		c0.642-1.508-1.482-2.13-1.637-1.006"></path>
	<path style="position: relative;" id="path-85" clip-path="url(#SVGID_2_)" fill="#000002" d="M401.898,277.319c-0.002-0.091-0.175-0.5-0.147-0.733
		c-1.112-0.878-1.386,0.394-1.08,1.233c0.342,0.937,1.11,1.298,1.127,2.383c0.492-0.68,1.517-1.435,1.864-2.255
		c0.641-1.508-1.482-2.13-1.638-1.005"></path>
	<path style="position: relative;" id="path-86" clip-path="url(#SVGID_2_)" fill="#000002" d="M380.472,278.455c-0.002-0.091-0.175-0.5-0.148-0.733
		c-1.111-0.878-1.385,0.395-1.079,1.233c0.342,0.937,1.109,1.298,1.126,2.383c0.493-0.68,1.517-1.435,1.864-2.254
		c0.642-1.509-1.482-2.131-1.637-1.006"></path>
	<path style="position: relative;" id="path-87" clip-path="url(#SVGID_2_)" fill="#000002" d="M376.338,278.774c-0.001-0.09-0.175-0.5-0.147-0.733
		c-1.112-0.878-1.385,0.395-1.079,1.233c0.342,0.937,1.109,1.298,1.126,2.383c0.492-0.68,1.516-1.435,1.863-2.254
		c0.642-1.509-1.482-2.13-1.637-1.006"></path>
	<path style="position: relative;" id="path-88" clip-path="url(#SVGID_2_)" fill="#FF382E" d="M384.579,238.799c-0.032-0.502,0.351-0.935,0.852-0.967
		c0.502-0.031,0.935,0.35,0.967,0.852c0.032,0.502-0.349,0.934-0.852,0.965C385.043,239.681,384.609,239.301,384.579,238.799"></path>
	<path style="position: relative;" id="path-89" clip-path="url(#SVGID_2_)" fill="#FF382E" d="M380.29,245.368c-0.036,0.502-0.472,0.88-0.974,0.843
		c-0.501-0.035-0.879-0.471-0.843-0.973c0.035-0.5,0.471-0.879,0.973-0.843C379.948,244.431,380.327,244.867,380.29,245.368"></path>
	<path style="position: relative;" id="path-90" clip-path="url(#SVGID_2_)" fill="#FF382E" d="M377.072,245.402c-0.036,0.502-0.472,0.879-0.974,0.843
		c-0.501-0.036-0.88-0.47-0.843-0.973c0.035-0.501,0.472-0.879,0.973-0.844C376.73,244.465,377.107,244.9,377.072,245.402"></path>
	<path style="position: relative;" id="path-91" clip-path="url(#SVGID_2_)" fill="#FF382E" d="M383.149,244.081c-0.035,0.502-0.47,0.88-0.973,0.844
		c-0.5-0.036-0.878-0.472-0.843-0.974c0.036-0.502,0.472-0.878,0.973-0.843C382.808,243.144,383.187,243.58,383.149,244.081"></path>
	<path style="position: relative;" id="path-92" clip-path="url(#SVGID_2_)" fill="#FF382E" d="M383.443,241.64c-0.033-0.502,0.349-0.935,0.852-0.966
		c0.5-0.033,0.934,0.349,0.966,0.85c0.031,0.503-0.348,0.935-0.85,0.967C383.906,242.521,383.474,242.142,383.443,241.64"></path>
	<path style="position: relative;" id="path-93" clip-path="url(#SVGID_2_)" fill="#B8CD00" d="M378.622,245.665c-0.069,0.499-0.528,0.846-1.027,0.778
		c-0.497-0.069-0.846-0.528-0.779-1.026c0.069-0.498,0.53-0.846,1.029-0.778C378.342,244.707,378.691,245.166,378.622,245.665"></path>
	<path style="position: relative;" id="path-94" clip-path="url(#SVGID_2_)" fill="#B8CD00" d="M384.441,237.104c-0.03-0.503,0.349-0.936,0.851-0.967
		c0.502-0.032,0.937,0.348,0.967,0.851c0.034,0.502-0.35,0.934-0.851,0.966C384.908,237.985,384.472,237.604,384.441,237.104"></path>
	<path style="position: relative;" id="path-95" clip-path="url(#SVGID_2_)" fill="#B8CD00" d="M384.336,240.341c-0.033-0.503,0.351-0.936,0.851-0.967
		c0.501-0.032,0.935,0.349,0.966,0.851c0.032,0.502-0.348,0.935-0.851,0.966C384.8,241.223,384.367,240.842,384.336,240.341"></path>
	<path style="position: relative;" id="path-96" clip-path="url(#SVGID_2_)" fill="#B8CD00" d="M382.631,243.02c-0.031-0.502,0.348-0.935,0.852-0.967
		c0.502-0.032,0.935,0.35,0.965,0.852c0.034,0.501-0.348,0.934-0.851,0.966C383.097,243.902,382.662,243.521,382.631,243.02"></path>
	<path style="position: relative;" id="path-97" clip-path="url(#SVGID_2_)" fill="#B8CD00" d="M381.728,244.923c-0.036,0.502-0.472,0.879-0.973,0.843
		c-0.502-0.036-0.88-0.471-0.844-0.973c0.035-0.502,0.471-0.879,0.974-0.843C381.386,243.986,381.763,244.422,381.728,244.923"></path>
	<path style="position: relative;" id="path-98" clip-path="url(#SVGID_2_)" fill="#B8CD00" d="M375.479,244.761c-0.037,0.502-0.472,0.879-0.973,0.843
		c-0.502-0.035-0.881-0.471-0.845-0.973c0.035-0.501,0.471-0.879,0.975-0.843C375.136,243.824,375.514,244.26,375.479,244.761"></path>
	<path style="position: relative;" id="path-99" clip-path="url(#SVGID_2_)" d="M403.263,203.598c-6.126,7.549,8.632,5.897,10.403,10.722c0.991,2.695-0.41,5.164-2.595,6.882
		c-2.918,2.292-4.567,2.509-5.463,6.069c-0.917-5.083,2.854-3.654,4.716-6.872c2.019-3.489-2.488-5.808-5.485-5.437
		c0.728,0.309,1.101,1.924,0.127,2.888c-0.488-0.814-1.165-1.279-1.664-1.873c1.597,3.359-3.399,5.388-3.026,8.942
		c-2.983-3.889,2.106-4.581,1.387-7.904c-0.968,0.956-2.283,1.625-3.22,2.451c1.767-2.13,4.064-7.351,0.275-7.752"></path>
	<path style="position: relative;" id="path-100" clip-path="url(#SVGID_2_)" d="M396.395,212.087c-3.369,0.913-3.236,8.88,0.858,8.417c-1.9,1.444-1.321,4.02,1.319,3.58
		c-1.118,0.397-2.121,1.703-1.543,2.953c0.772,1.671,2.126,0.269,3.262,0.958c2.363,1.433,1.941,3.958-1.186,5.225
		c3.446-3.584-0.74-4.138-3.959-3.975c-0.236-1.527-0.238-3.052,0.892-4.083c-1.982-0.585-2.647-3.054-1.292-4.236
		c-4.125,0.194-4.043-6.586-0.948-8.19"></path>
	<path style="position: relative;" id="path-101" clip-path="url(#SVGID_2_)" d="M382.485,181.739c-1.76,0.226-0.424-5.582-2.163-6.979c-3.299-2.649-4.482,2.604-1.268,2.649
		c-1.975-0.802-0.453-3.763,1.429-1.676c1.449,1.606-1.722,5.166,0.92,5.789"></path>
	<path style="position: relative;" id="path-102" clip-path="url(#SVGID_2_)" d="M392.874,215.069c6.745,0.416-7.092,11.327-0.471,11.071c1.231,2.465-1.211,1.84-1.974,3.203
		c-1.019,1.823,1.344,3.593,2.623,2.034c-0.605,2.511-3.391,0.413-3.63-1.169c-0.198-1.315,0.206-1.237,0.632-2.428
		c0.1-0.278,0.854-0.355,0.882-0.796c0.056-0.905-0.659-0.531-0.875-1.094c-0.765-1.998-1.272-2.82,0.379-4.814
		c1.147-1.386,3.089-2.84,1.568-4.708"></path>
	<path style="position: relative;" id="path-103" clip-path="url(#SVGID_2_)" d="M352.618,209.875c-1.296-0.626-4.948,0.966-4.545-1.882c-0.035,2.148,1.994,2.572,3.679,2.098"></path>
	<path style="position: relative;" id="path-104" clip-path="url(#SVGID_2_)" fill-rule="evenodd" clip-rule="evenodd" fill="#000002" d="M517.726,370.95
		c0.888,0.588,1.372,1.152,1.234,1.541c-0.262,0.757-2.77,0.57-5.595-0.416c-2.827-0.983-4.905-2.396-4.642-3.152
		c0.136-0.39,0.867-0.53,1.927-0.438c1.977,0.168,2.945,0.896,3.85-1.495c1.095-2.891,1.52-4.327,0.985-7.462
		c-1.854-10.856,3.058-17.238,4.315-19.7l4.264,1.486l0.022,0.007l2.096,0.731l2.188,0.763c-0.548,2.711-0.667,10.762-8.865,18.114
		c-2.367,2.122-2.929,3.512-3.868,6.458C514.86,369.821,516.072,369.853,517.726,370.95 M514.023,370.188
		c1.744,0.607,3.086,1.314,2.992,1.577c-0.092,0.263-1.581-0.018-3.324-0.624c-1.744-0.608-3.086-1.316-2.994-1.579
		C510.791,369.3,512.279,369.58,514.023,370.188"></path>
	<path style="position: relative;" id="path-105" clip-path="url(#SVGID_2_)" fill-rule="evenodd" clip-rule="evenodd" fill="#000002" d="M479.514,367.817
		c1.052-0.162,1.79-0.069,1.95,0.313c0.314,0.736-1.668,2.282-4.422,3.45c-2.756,1.171-5.244,1.521-5.557,0.784
		c-0.162-0.379,0.286-0.974,1.132-1.619c1.576-1.203,2.782-1.314,1.848-3.692c-1.132-2.877-1.784-4.228-4.286-6.19
		c-8.668-6.794-9.318-14.819-10.04-17.49l4.156-1.763l0.021-0.011l2.043-0.866l2.134-0.905c1.414,2.376,6.736,8.418,5.604,19.372
		c-0.326,3.162,0.192,4.569,1.476,7.384C476.634,368.907,477.553,368.115,479.514,367.817 M476.261,369.741
		c1.699-0.722,3.168-1.101,3.276-0.844s-1.183,1.05-2.883,1.771s-3.17,1.1-3.277,0.843
		C473.269,371.255,474.56,370.462,476.261,369.741"></path>
	<path style="position: relative;" id="path-106" clip-path="url(#SVGID_2_)" d="M508.133,308.941l-2.082-12.027c-0.389-2.247-0.402-5.926-0.029-8.176l1.427-8.641l-6.415-1.06
		l-1.426,8.641c-0.373,2.251-1.569,5.729-2.662,7.732l-5.84,10.718c-1.091,2.003-2.287,5.482-2.66,7.732l-5.005,30.301l19.719,3.259
		l5.005-30.302C508.538,314.868,508.522,311.189,508.133,308.941"></path>
	
		<rect id="rect-5" x="485.692" y="330.568" transform="matrix(0.9866 0.163 -0.163 0.9866 61.4151 -76.1728)" clip-path="url(#SVGID_2_)" width="18.392" height="11.194"></rect>
	
		<rect id="rect-6" x="490.502" y="328.177" transform="matrix(-0.1631 0.9866 -0.9866 -0.1631 907.2516 -97.2859)" clip-path="url(#SVGID_2_)" width="8.774" height="15.973"></rect>
	<path style="position: relative;" id="path-107" clip-path="url(#SVGID_2_)" d="M506.051,296.915c-0.389-2.248-0.406-5.926-0.032-8.176l1.305-7.899l0.437,0.073l1.266-7.67
		l-7.28-1.203l-1.267,7.67l0.434,0.072l-1.305,7.897c-0.373,2.251-1.57,5.729-2.66,7.732l-3,5.503l5.564,7.277l7.606-5.104
		L506.051,296.915z"></path>
	<path style="position: relative;" id="path-108" clip-path="url(#SVGID_2_)" fill="#A30F15" d="M523.01,232.487c-0.342-0.517-1.04-0.658-1.557-0.315l-0.245,0.163
		l-0.163-0.244c-0.343-0.518-1.041-0.659-1.557-0.315c-1.439,0.955,0.756,3.343,1.088,3.69
		C521.017,235.275,523.968,233.927,523.01,232.487"></path>
	<path style="position: relative;" id="path-109" clip-path="url(#SVGID_2_)" fill="#A30F15" d="M517.52,241.032c-0.33-0.524-1.026-0.683-1.551-0.352l-0.249,0.157
		l-0.156-0.248c-0.331-0.526-1.023-0.684-1.55-0.352c-1.462,0.92,0.676,3.36,0.999,3.714
		C515.456,243.772,518.439,242.494,517.52,241.032"></path>
	<path style="position: relative;" id="path-110" clip-path="url(#SVGID_2_)" fill="#A30F15" d="M509.427,248.725c-0.331-0.524-1.024-0.682-1.55-0.351l-0.248,0.156
		l-0.158-0.248c-0.331-0.526-1.023-0.683-1.55-0.352c-1.462,0.921,0.678,3.361,1.001,3.715
		C507.363,251.465,510.349,250.188,509.427,248.725"></path>
	<path style="position: relative;" id="path-111" clip-path="url(#SVGID_2_)" fill="#A30F15" d="M514.018,256.86c-0.344-0.517-1.04-0.658-1.559-0.314l-0.243,0.162
		l-0.163-0.244c-0.344-0.518-1.041-0.659-1.559-0.315c-1.438,0.956,0.758,3.344,1.09,3.69
		C512.024,259.648,514.975,258.299,514.018,256.86"></path>
	<path style="position: relative;" id="path-112" clip-path="url(#SVGID_2_)" fill="#A30F15" d="M508.525,265.405c-0.329-0.524-1.024-0.682-1.549-0.351l-0.249,0.157
		l-0.156-0.249c-0.331-0.526-1.024-0.683-1.55-0.351c-1.462,0.919,0.676,3.36,0.999,3.714
		C506.465,268.146,509.447,266.868,508.525,265.405"></path>
	<polygon clip-path="url(#SVGID_2_)" fill="#703E0D" points="558.453,190.608 543.088,190.608 550.201,197.616 550.201,208.922 
		551.326,208.922 551.326,197.634 	"></polygon>
	<rect id="rect-7" x="546.119" y="208.885" clip-path="url(#SVGID_2_)" fill="#703E0D" width="9.272" height="0.807"></rect>
	<path style="position: relative;" id="path-113" clip-path="url(#SVGID_2_)" fill="#703E0D" d="M548.596,195.477c0,0,1.531,1.6,2.39,1.527
		c0.861-0.072,1.927-1.564,1.927-1.564s-1.084,0.856-1.402,0.946c-0.317,0.092-0.988,0.11-1.383-0.019
		C549.734,196.24,548.596,195.477,548.596,195.477"></path>
	<polygon clip-path="url(#SVGID_2_)" fill="#703E0D" points="546.758,191.505 549.954,195.82 549.673,196.197 545.253,191.224 	"></polygon>
	<polygon clip-path="url(#SVGID_2_)" fill="#703E0D" points="566.932,190.608 551.567,190.608 558.68,197.616 558.68,208.922 
		559.805,208.922 559.805,197.634 	"></polygon>
	<rect id="rect-8" x="554.597" y="208.885" clip-path="url(#SVGID_2_)" fill="#703E0D" width="9.275" height="0.807"></rect>
	<path style="position: relative;" id="path-114" clip-path="url(#SVGID_2_)" fill="#703E0D" d="M556.575,195.089c0,0,1.833,1.777,2.603,1.71
		c0.771-0.067,3.33-2.375,3.33-2.375s-2.475,0.898-2.759,0.982c-0.286,0.084-0.886,0.338-1.237,0.222
		C558.159,195.509,556.575,195.089,556.575,195.089"></path>
	<polygon clip-path="url(#SVGID_2_)" fill="#703E0D" points="555.237,191.505 558.434,195.82 558.152,196.197 553.732,191.224 	"></polygon>
	<path style="position: relative;" id="path-115" clip-path="url(#SVGID_2_)" fill="#703E0D" d="M556.803,232.163c0,0,0.222-1.593,1.773-1.962
		c1.554-0.369,3.947-1.178,3.947-1.178l5.193-1.346c0,0,1.167-0.244,1.242,0.113c0.075,0.358-1.478,2.174-1.478,2.174l-5.632,2.559
		l-3.915-0.134L556.803,232.163z"></path>
	<path style="position: relative;" id="path-116" clip-path="url(#SVGID_2_)" fill="#703E0D" d="M559.841,224.462c0,0,0.246,1.769,0.317,3.04
		c0.071,1.271,0.603,2.12,1.028,3.073c0.425,0.955,1.415,2.438,1.415,2.438l6.339-3.427c0,0-1.807-3.073-1.91-3.71
		c-0.107-0.636,0.281-1.131,0.459-1.943c0.175-0.813-1.876-2.119-1.876-2.119L559.841,224.462z"></path>
	<path style="position: relative;" id="path-117" clip-path="url(#SVGID_2_)" fill="#703E0D" d="M622.428,201.733c0,0,2.544-1.027,3.448-4.344
		c0.905-3.317,2.16-5.974,1.173-8.077s-0.69-5.497-5.447-7.465c-2.574-1.066-7.865-1.614-10.002-1.29
		c-2.138,0.324-4.07,0.474-5.449,1.9c-1.243,1.285-2.035,4.619-2.446,5.346c-0.41,0.729-0.905,1.214-0.905,1.7
		c0,0.485,0.167,1.133-0.164,1.538c-0.327,0.405-3.334,3.498-3.334,3.498s-0.941,0.305-1.188,0.628
		c-0.246,0.323,0.247,1.456,0.247,1.456l1.644,0.971c0,0,0.055,0.418-0.357,0.986c-0.41,0.565-0.545,0.633-0.545,0.633l0.246,0.727
		c0,0-0.165,0.405-0.165,0.729c0,0.323,0.494,0.161,0.411,0.566c-0.083,0.403,0.163,1.132-0.163,1.941
		c-0.329,0.81-0.741,1.133,0.573,2.022c1.317,0.891,2.139,0.081,4.688,1.538c2.547,1.457,1.972,3.317,2.384,4.773
		c0,0,0.821,2.427,0.821,3.156c0,0.728,12.909,0,12.909,0S621.524,202.866,622.428,201.733"></path>
	<path style="position: relative;" id="path-118" clip-path="url(#SVGID_2_)" fill="#703E0D" d="M570.548,230.924l-1.589-3.135c0,0-3.142,2.146-4.963,2.889
		c-1.817,0.743-7.193,1.485-7.193,1.485l2.646,5.117l6.534-1.072l4.565-3.796V230.924z"></path>
	<path style="position: relative;" id="path-119" clip-path="url(#SVGID_2_)" fill="#703E0D" d="M598.963,219.634c0,0-12.983,31.387-12.684,31.587
		c0.294,0.193-15.848-20.674-15.848-20.674s-0.163,1.476-3.807,3.539c-3.653,2.062-6.297,2.85-7.491,2.85
		c-1.193,0-2.192-0.687-1.193,0.881c0.995,1.577,19.962,29.626,20.455,30.114c0.488,0.495,4.801,4.691,5.689,5.177
		c0.89,0.494,3.459,1.006,4.051,0.913c0.595-0.101,6.122-24.669,6.122-24.669l6.895-29.797l-1.322-0.628L598.963,219.634z"></path>
	<path style="position: relative;" id="path-120" clip-path="url(#SVGID_2_)" fill="#703E0D" d="M583.129,258.847c0.761,0,0.99,0.313,1.058,0.497
		c-0.066,0.25-0.175,0.565-0.301,0.94c-0.262,0.635-0.587,1.523-0.819,3.1c-0.068,0.419-0.125,0.858-0.155,1.318
		c-0.022,0.266-0.045,0.545-0.063,0.841c-0.157,2.501,1.529,5.808,1.529,5.808s-0.32,0.042-0.804,0.042
		c-0.486,0-1.137-0.044-1.778-0.216c-0.325-0.087-0.648-0.21-0.948-0.377c-0.243-0.131-0.594-0.718-0.94-1.399
		c-0.468-0.921-0.932-2.015-1.112-2.407c-0.286-0.625-0.548-3.908-0.674-4.607c-0.131-0.694,0.383-1.893,0.569-2.4
		c0.188-0.505,0.889-0.188,2.221-0.505C582.24,259.159,583.129,258.847,583.129,258.847"></path>
	<path style="position: relative;" id="path-121" clip-path="url(#SVGID_2_)" fill="#703E0D" d="M626.546,279.61c1.542-8.882,11.891-49.112,11.891-51.52
		c0-2.402-3.912-6.009-3.912-6.009l-11.892-6.608l-1.206-3.9c0,0-3.755,1.05-6.771,1.35c-3.006,0.302-7.678,0.751-7.678,0.751
		l-0.144,2.274c0,0-7.769,0.425-8.069,4.476c-0.301,4.058-4.426,19.531-5.334,22.388c-0.899,2.85-6.795,21.962-6.319,25.982
		c1.031,8.715,1.306,16.066,1.757,24.632l2.377,17.237l37.508-1.563C628.753,309.101,624.341,292.316,626.546,279.61"></path>
	<path style="position: relative;" id="path-122" clip-path="url(#SVGID_2_)" fill="#703E0D" d="M589.78,257.969c0,0-2.97,0.127-3.377,0.127
		c-2.104-0.008-2.427,1.859-2.518,2.188c-0.401,1.461-1.03,4.188-1.073,4.674c-0.097,1.471,0.166,3.053,0.845,4.777
		c0.936,2.368,1.276,2.797,1.39,2.797c0.12,0-0.043-0.737-0.043-0.737s-0.456-5.468-0.284-7.282
		c0.415-4.287,3.463-3.603,4.669-4.503L589.78,257.969z"></path>
	<path style="position: relative;" id="path-123" clip-path="url(#SVGID_2_)" fill="#703E0D" d="M622.781,230.646l-0.148,2.852l-9.635,23.432l-1.056,0.449l1.508,2.55
		c0,0-5.565-2.101-6.021-2.101c-0.368,0-13.531,1.506-18.966,2.55c0.187-0.771,0.385-1.562,0.591-2.363l18.83-1.086l4.214,2.099
		l-2.413-2.399l2.413-0.15L622.781,230.646z"></path>
	<path style="position: relative;" id="path-124" clip-path="url(#SVGID_2_)" fill="#703E0D" d="M606.378,273.149l9.03-0.901l2.409,12.016c0,0-3.162-1.351-4.97-1.051
		C611.044,283.514,606.378,273.149,606.378,273.149"></path>
	<path style="position: relative;" id="path-125" clip-path="url(#SVGID_2_)" fill="#703E0D" d="M613.08,216.608c-0.773,1.243-6.309,11.898-7.985,15.24
		c-1.403,2.807-5.421,13.078-5.421,13.078s1.089-7.178,2.467-11.996c1.378-4.819,3.548-11.208,3.548-11.208s1.772-3.539,1.575-4.228
		c-0.196-0.69-0.984-4.229-0.098-4.13c0.886,0.098,11.746-1.078,11.746-1.078C615.087,213.505,614.358,214.543,613.08,216.608"></path>
	<path style="position: relative;" id="path-126" clip-path="url(#SVGID_2_)" fill="#703E0D" d="M604.404,289.473l-1.725-20.94c0,0,1.199,17.201,0,18.472
		c-1.197,1.271-2.771,1.271-2.771,1.271s1.798-0.225,3.146-0.075C604.404,288.353,604.33,288.876,604.404,289.473"></path>
	<path style="position: relative;" id="path-127" clip-path="url(#SVGID_2_)" fill="#703E0D" d="M583.284,258.841c0,0,0.149,0.613,0.17,0.939c0.023,0.328-0.3,3.301-0.3,3.301
		l1.123-3.67c0,0-0.153-0.315-0.479-0.455C583.559,258.856,583.284,258.841,583.284,258.841"></path>
	<path style="position: relative;" id="path-128" clip-path="url(#SVGID_2_)" fill="#703E0D" d="M567.411,224.183c0,0,1.036-2.241,1.145-3.739
		c0.11-1.495-0.853-2.163-0.596-3.003c0.255-0.84,3.514-4.235,4.026-4.857c0.514-0.621,0.77-0.547,0.77-0.547
		s-0.135-0.586-0.732-0.622c-0.599-0.036-1.098-0.036-1.501,0.513c-0.401,0.546-3.243,2.725-3.646,2.907
		c-0.4,0.181-0.913,0.146-1.28,0.256c-0.364,0.109-1.332-0.424-1.515-1.008s-2.33-0.926-3.636-1.291
		c-1.303-0.365-6.098-1.533-7.051-1.461c-0.95,0.073-5.999,0-5.999,0s-0.293,0.839,0.366,1.059c0.656,0.219,0.111-0.073,1.06,0.11
		c0.951,0.182,0.403,0.109,0.403,0.109s-0.185,0.073-0.22,0.438c-0.037,0.366,0.402,0.658,0.549,0.658s3.075,0.475,4.317,0.803
		c1.244,0.329,2.585,1.8,3.063,2.129c2.139,1.48,2.573,6.609,2.573,6.231c0-1.276,0.469,3.138,0.469,3.138L567.411,224.183z"></path>
	<path style="position: relative;" id="path-129" clip-path="url(#SVGID_2_)" fill="#703E0D" d="M572.646,211.89c0,0-0.646-0.183-1.221,0.438
		c-0.573,0.621-3.978,4.091-4.051,4.346c-0.072,0.256-0.146,1.315-0.622,1.716c-0.476,0.403-0.732-0.547-1.098-0.292
		c-0.365,0.256,0.183-1.058-0.33-1.898c-0.512-0.841-0.924-1.433-1.181-2.017c-0.257-0.585-0.479-0.451-0.956-0.67
		c-0.348-0.159-1.026-1.312-3.847-2.204c-1.034-0.328-2.563-0.027-4.232-0.115c-6.22-0.33-7.018,0.247-7.018,0.247
		s-0.514,0.219-0.075,0.328c0.44,0.11,0.572,0.31,0.572,0.31l0.812,0.316c0,0,0.667,0.104,0.556,0.215
		c-0.11,0.109-0.04,0.362,0.399,0.437c0.438,0.073,2.945,0.3,3.531,0.555c0.585,0.256,1.558,0.434,2.067,0.763
		c0.514,0.327,1.797,0.545,2.494,1.167c0.694,0.619,1.809,2.783,2.697,3.625c0.892,0.838,1.068,5.722,1.91,5.576
		c0.841-0.146,2.636-0.182,3.515-0.767c0.878-0.585,1.986-2.791,1.986-3.85c0-1.059,1.305-3.579,1.951-4.673
		C571.155,214.346,571.949,212.767,572.646,211.89"></path>
	<path style="position: relative;" id="path-130" clip-path="url(#SVGID_2_)" fill="#703E0D" d="M579.969,211.446h-40.771c-1.489,0-1.39-1.732-1.39-1.732h43.549
		C581.356,209.714,581.5,211.446,579.969,211.446"></path>
	<path style="position: relative;" id="path-131" clip-path="url(#SVGID_2_)" fill="#703E0D" d="M581.512,209.942H537.48c-1.607,0-1.498-0.648-1.498-0.648h47.028
		C583.011,209.293,583.165,209.942,581.512,209.942"></path>
	<path style="position: relative;" id="path-132" clip-path="url(#SVGID_2_)" fill="#703E0D" d="M581.599,209.856h-44.032c-1.607,0-1.5-0.649-1.5-0.649h47.03
		C583.097,209.207,583.253,209.856,581.599,209.856"></path>
	<path style="position: relative;" id="path-133" clip-path="url(#SVGID_2_)" fill="#703E0D" d="M610.771,215.339l-2.041,0.869c0,0,0.005-0.096-0.345-0.144
		c-0.352-0.049-1.458,0.054-1.458,0.054l0.058,0.393l0.117,1.642l1.223,0.08c0,0,0.234,0.066,0.43-0.224
		c0.193-0.292,2.028,0.404,2.028,0.404s0.504,0.057,0.363-0.889c-0.117-0.772-0.026-1.99-0.026-1.99S610.965,215.29,610.771,215.339
		"></path>
	<path style="position: relative;" id="path-134" clip-path="url(#SVGID_2_)" fill="#703E0D" d="M625.625,296.598l-3.708,71.616l-0.695,1.391l0.928,0.926l0.231,2.085
		l0.929,2.546c0,0,2.438,8.787,3.978,25.042c1.509,15.909,2.691,21.776,2.691,21.776l0.231,6.02l-18.564-1.156
		c-3.188-37.28-8.754-52.344-9.189-54.948c-0.694-4.169-7.306-66.7-7.306-66.7L625.625,296.598z"></path>
	<path style="position: relative;" id="path-135" clip-path="url(#SVGID_2_)" fill="#703E0D" d="M592.903,302.048l-8.517,57.743c0,0,0.292,4.691,0.586,5.864
		c0.294,1.17,18.213,19.051,21.149,23.155c2.938,4.104,19.095,26.088,19.095,26.088l5.287,4.688c0,0,6.089-11.776,6.755-13.191
		c0.67-1.409,0.447-4.501,0.447-4.501l1.341,0.634l4.217-7.226c0,0-3.361-5.026-6.593-6.198c-3.23-1.174-3.783-1.583-3.783-1.583
		l-1.797-1.35l-19.095-21.398l0.589-18.171L592.903,302.048z"></path>
	<polygon clip-path="url(#SVGID_2_)" fill="#703E0D" points="569.935,207.242 570.348,206.946 570.891,207.429 570.415,207.76 
		569.982,207.298 	"></polygon>
	<polygon clip-path="url(#SVGID_2_)" fill="#703E0D" points="569.024,205.575 570.462,207.011 570.005,207.332 568.477,206.108 	"></polygon>
	<polygon clip-path="url(#SVGID_2_)" fill="#703E0D" points="573.391,207.006 573.802,207.309 573.511,207.972 573.05,207.625 
		573.353,207.068 	"></polygon>
	<polygon clip-path="url(#SVGID_2_)" fill="#703E0D" points="574.69,205.622 573.776,207.436 573.327,207.102 574.014,205.267 	"></polygon>
	<path style="position: relative;" id="path-136" clip-path="url(#SVGID_2_)" fill="#703E0D" d="M575.147,206.959c0,0.012,0.006,0.022,0.006,0.033
		c0,0.352-0.226,0.635-0.506,0.635c-0.278,0-0.503-0.284-0.503-0.635c0-0.011,0.004-0.021,0.006-0.033h-3.691
		c0,0.012,0.006,0.022,0.006,0.033c0,0.352-0.228,0.635-0.506,0.635s-0.504-0.284-0.504-0.635c0-0.011,0.004-0.021,0.005-0.033
		h-1.525v2.199h8.89v-2.199H575.147z"></path>
	<path style="position: relative;" id="path-137" clip-path="url(#SVGID_2_)" fill="#703E0D" d="M576.293,207.084h-0.956c0,0,0.663,0.065,0.869,0.381
		c0.044,0.064,0.07,0.139,0.087,0.212v1.349h0.379v-1.943H576.293z"></path>
	<path style="position: relative;" id="path-138" clip-path="url(#SVGID_2_)" fill="#703E0D" d="M569.348,207.074c0,0,0.01,0.358,0.184,0.553
		c0.174,0.195,0.412,0.152,0.412,0.152s-0.294,0.129-0.576-0.065c-0.28-0.195-0.38-0.662-0.38-0.662L569.348,207.074z"></path>
	<path style="position: relative;" id="path-139" clip-path="url(#SVGID_2_)" fill="#703E0D" d="M574.024,207.041c0,0-0.032,0.436,0.314,0.663
		c0.348,0.227,0.478,0.151,0.478,0.151s-0.195,0.153-0.553,0.066c-0.358-0.087-0.674-0.553-0.674-0.553h-2.984
		c0,0,0.065-0.186,0.065-0.25v-0.066L574.024,207.041z"></path>
	<path style="position: relative;" id="path-140" clip-path="url(#SVGID_2_)" fill="#703E0D" d="M629.434,425.485c0,0,2.685-0.979,1.221,6.594h-7.324l-1.223-2.198
		l-0.976,2.687h-19.048c0,0-0.244-6.106,12.943-8.304"></path>
	<path style="position: relative;" id="path-141" clip-path="url(#SVGID_2_)" fill="#703E0D" d="M612.854,63.094l-0.003-0.03v-0.045c-0.008-0.159,0.045-0.695,0.263-1.036
		c0.236-0.325,0.436-0.62,1.52-0.657c1.599-0.002,6.84-0.008,9.847-0.011c0.045-0.987,0.082-1.852,0.108-2.471
		c-0.879,0-1.959,0.001-3.093,0.002c-2.718,0.004-5.723,0.008-6.866,0.009c-0.033,0-0.069-0.001-0.104-0.001
		c-1.714,0.002-2.982,0.876-3.531,1.856c-0.578,0.983-0.609,1.91-0.615,2.312c0,0.057,0.002,0.105,0.003,0.139l0.005,4.511
		l2.472-0.003L612.854,63.094z"></path>
	<path style="position: relative;" id="path-142" clip-path="url(#SVGID_2_)" fill="#703E0D" d="M607.686,73.639l8.037-0.01c-1.643-1.27-2.301-2.855-2.509-3.478l-3.027,0.003
		C609.979,70.778,609.326,72.366,607.686,73.639"></path>
	<path style="position: relative;" id="path-143" clip-path="url(#SVGID_2_)" fill="#703E0D" d="M613.537,69.444c0.297,0,0.536-0.24,0.536-0.536
		c-0.001-0.295-0.239-0.533-0.537-0.533l-3.68,0.005c-0.292,0-0.532,0.24-0.533,0.534h0.002c0,0.296,0.24,0.535,0.533,0.535
		L613.537,69.444z"></path>
	<path style="position: relative;" id="path-144" clip-path="url(#SVGID_2_)" fill="#703E0D" d="M638.23,61.298c1.181,0.036,1.437,0.376,1.722,0.782
		c0.259,0.424,0.321,1.061,0.315,1.287c0,0.031-0.001,0.053-0.002,0.063l-0.003,0.051l0.005,4.156l2.471-0.003l-0.005-4.062
		c0.002-0.049,0.005-0.119,0.005-0.208c-0.007-0.462-0.046-1.477-0.655-2.535c-0.577-1.054-1.916-2.006-3.749-2.004
		c-0.034,0-0.07,0.001-0.105,0.001c-1.578,0.003-6.599,0.008-9.549,0.012c0.027,0.62,0.067,1.485,0.113,2.471
		C631.757,61.306,636.673,61.3,638.23,61.298"></path>
	<path style="position: relative;" id="path-145" clip-path="url(#SVGID_2_)" fill="#703E0D" d="M611.734,99.4c0,0-3.426,0.004-3.422,3.62c0.006,3.616,3.436,7.418,3.436,7.418
		s3.42-3.81,3.416-7.426C615.16,99.396,611.734,99.4,611.734,99.4"></path>
	<path style="position: relative;" id="path-146" clip-path="url(#SVGID_2_)" fill="#703E0D" d="M609.414,95.959l3.788,1.598c0.139,0.06,0.282,0.087,0.421,0.087
		c0.412,0,0.804-0.24,0.977-0.643c0.061-0.138,0.088-0.28,0.088-0.421c0-0.411-0.24-0.801-0.64-0.974l-3.789-1.599
		c-0.139-0.059-0.282-0.087-0.422-0.087c-0.412,0.001-0.804,0.24-0.977,0.641c-0.059,0.139-0.087,0.281-0.088,0.423
		C608.774,95.395,609.015,95.787,609.414,95.959"></path>
	<path style="position: relative;" id="path-147" clip-path="url(#SVGID_2_)" fill="#703E0D" d="M609.41,92.903l3.788,1.598c0.139,0.06,0.281,0.088,0.421,0.088
		c0.412-0.001,0.804-0.24,0.978-0.644c0.06-0.139,0.087-0.28,0.087-0.42c0-0.412-0.241-0.802-0.639-0.976l-3.789-1.597
		c-0.139-0.061-0.284-0.088-0.425-0.088c-0.409,0-0.803,0.24-0.975,0.641c-0.059,0.138-0.087,0.281-0.087,0.422
		C608.771,92.338,609.011,92.73,609.41,92.903"></path>
	<path style="position: relative;" id="path-148" clip-path="url(#SVGID_2_)" fill="#703E0D" d="M608.968,98.644l5.026-0.006l-3.731-1.574
		c-0.139-0.061-0.281-0.087-0.423-0.087c-0.411,0-0.804,0.24-0.977,0.641c-0.06,0.138-0.086,0.28-0.087,0.422
		C608.776,98.257,608.847,98.468,608.968,98.644"></path>
	<path style="position: relative;" id="path-149" clip-path="url(#SVGID_2_)" fill="#703E0D" d="M609.407,89.846l3.787,1.598c0.14,0.06,0.282,0.088,0.422,0.088
		c0.412-0.001,0.803-0.24,0.976-0.642c0.062-0.139,0.088-0.282,0.088-0.422c-0.001-0.411-0.239-0.802-0.64-0.976l-3.788-1.597
		c-0.139-0.061-0.283-0.088-0.423-0.088c-0.412,0-0.804,0.241-0.976,0.641c-0.06,0.139-0.088,0.281-0.088,0.422
		C608.768,89.282,609.008,89.674,609.407,89.846"></path>
	<path style="position: relative;" id="path-150" clip-path="url(#SVGID_2_)" fill="#703E0D" d="M609.403,86.79L609.403,86.79l3.788,1.598c0.139,0.06,0.281,0.088,0.421,0.088
		c0.412,0,0.803-0.24,0.977-0.643c0.061-0.137,0.087-0.28,0.087-0.42c0-0.412-0.239-0.803-0.639-0.975l-3.789-1.599
		c-0.139-0.061-0.283-0.089-0.424-0.088c-0.41,0.001-0.803,0.241-0.975,0.643c-0.059,0.137-0.086,0.28-0.088,0.421
		C608.764,86.227,609.003,86.618,609.403,86.79"></path>
	<path style="position: relative;" id="path-151" clip-path="url(#SVGID_2_)" fill="#703E0D" d="M609.4,83.733L609.4,83.733l3.787,1.599c0.139,0.059,0.281,0.088,0.422,0.088
		c0.412-0.001,0.803-0.241,0.975-0.644c0.063-0.138,0.088-0.28,0.088-0.42c0-0.412-0.239-0.802-0.639-0.975l-3.789-1.599
		c-0.14-0.061-0.282-0.087-0.423-0.087c-0.411,0.001-0.803,0.24-0.976,0.642c-0.059,0.138-0.087,0.28-0.087,0.421
		C608.76,83.17,608.999,83.562,609.4,83.733"></path>
	<path style="position: relative;" id="path-152" clip-path="url(#SVGID_2_)" fill="#703E0D" d="M609.396,80.677l3.788,1.599c0.138,0.059,0.281,0.088,0.421,0.087
		c0.412-0.001,0.803-0.241,0.976-0.643c0.061-0.138,0.087-0.28,0.087-0.421c0-0.412-0.238-0.802-0.639-0.975l-3.788-1.598
		c-0.14-0.06-0.283-0.089-0.423-0.089c-0.412,0.002-0.804,0.242-0.976,0.643c-0.06,0.138-0.087,0.281-0.089,0.421
		C608.757,80.113,608.996,80.505,609.396,80.677"></path>
	<path style="position: relative;" id="path-153" clip-path="url(#SVGID_2_)" fill="#703E0D" d="M608.838,76.224c-0.061,0.139-0.087,0.281-0.087,0.422
		c0.001,0.411,0.241,0.801,0.639,0.975l0.001-0.001l3.789,1.6c0.139,0.06,0.282,0.087,0.423,0.087
		c0.412-0.001,0.803-0.24,0.976-0.643c0.06-0.138,0.087-0.28,0.087-0.42c0-0.411-0.239-0.803-0.64-0.976l-3.788-1.598
		c-0.14-0.06-0.282-0.088-0.423-0.088C609.402,75.583,609.011,75.823,608.838,76.224"></path>
	<path style="position: relative;" id="path-154" clip-path="url(#SVGID_2_)" fill="#703E0D" d="M613.177,76.163c0.138,0.061,0.282,0.088,0.422,0.087
		c0.411,0,0.804-0.24,0.976-0.641c0.061-0.139,0.088-0.282,0.088-0.422c-0.001-0.283-0.116-0.554-0.317-0.753l-5.168,0.006
		c0.063,0.048,0.134,0.091,0.21,0.125v-0.001L613.177,76.163z"></path>
	<path style="position: relative;" id="path-155" clip-path="url(#SVGID_2_)" fill="#703E0D" d="M643.044,70.115l-3.026,0.003c-0.207,0.624-0.859,2.212-2.502,3.485
		l8.038-0.009C643.91,72.324,643.252,70.738,643.044,70.115"></path>
	<path style="position: relative;" id="path-156" clip-path="url(#SVGID_2_)" fill="#703E0D" d="M639.155,68.878c0,0.296,0.24,0.535,0.534,0.535l3.68-0.005
		c0.297-0.001,0.534-0.239,0.534-0.536c-0.001-0.294-0.239-0.533-0.535-0.533l-3.68,0.004
		C639.394,68.344,639.154,68.584,639.155,68.878"></path>
	<path style="position: relative;" id="path-157" clip-path="url(#SVGID_2_)" fill="#703E0D" d="M644.995,102.977c-0.004-3.616-3.43-3.612-3.43-3.612s-3.427,0.004-3.423,3.62
		c0,0.473,0.062,0.95,0.165,1.421c0.22,1.007,0.636,1.988,1.102,2.853c0.979,1.824,2.169,3.144,2.169,3.144s1.188-1.323,2.162-3.149
		c0.463-0.867,0.877-1.848,1.095-2.856C644.936,103.927,644.995,103.45,644.995,102.977"></path>
	<path style="position: relative;" id="path-158" clip-path="url(#SVGID_2_)" fill="#703E0D" d="M639.244,95.923l3.789,1.598c0.138,0.06,0.28,0.087,0.422,0.087
		c0.41-0.001,0.803-0.24,0.975-0.642c0.061-0.139,0.089-0.281,0.089-0.422c-0.001-0.41-0.241-0.801-0.64-0.974l-3.791-1.599
		c-0.137-0.06-0.281-0.087-0.422-0.087c-0.411,0-0.803,0.24-0.976,0.641c-0.059,0.139-0.086,0.281-0.087,0.423
		C638.605,95.359,638.844,95.751,639.244,95.923"></path>
	<path style="position: relative;" id="path-159" clip-path="url(#SVGID_2_)" fill="#703E0D" d="M639.242,92.868l3.787,1.597c0.138,0.06,0.281,0.088,0.421,0.088
		c0.412-0.001,0.804-0.24,0.976-0.643c0.062-0.139,0.088-0.28,0.088-0.421c0-0.411-0.239-0.802-0.64-0.975l-3.789-1.598
		c-0.139-0.06-0.281-0.088-0.422-0.088c-0.412,0-0.803,0.241-0.976,0.641c-0.059,0.139-0.087,0.282-0.088,0.423
		C638.602,92.303,638.841,92.695,639.242,92.868"></path>
	<path style="position: relative;" id="path-160" clip-path="url(#SVGID_2_)" fill="#703E0D" d="M638.799,98.609l5.025-0.006l-3.73-1.575c-0.14-0.06-0.283-0.087-0.424-0.087
		c-0.41,0.001-0.803,0.24-0.976,0.641c-0.059,0.138-0.086,0.281-0.087,0.423C638.607,98.222,638.677,98.433,638.799,98.609"></path>
	<path style="position: relative;" id="path-161" clip-path="url(#SVGID_2_)" fill="#703E0D" d="M639.238,89.811l3.787,1.598c0.139,0.06,0.281,0.088,0.423,0.088
		c0.41-0.001,0.803-0.24,0.974-0.642c0.061-0.139,0.088-0.282,0.088-0.422c0-0.411-0.239-0.802-0.639-0.975l-3.789-1.599
		c-0.139-0.06-0.282-0.087-0.423-0.087c-0.412,0-0.803,0.241-0.976,0.641c-0.059,0.139-0.086,0.282-0.088,0.422
		C638.599,89.248,638.837,89.639,639.238,89.811"></path>
	<path style="position: relative;" id="path-162" clip-path="url(#SVGID_2_)" fill="#703E0D" d="M639.234,86.754L639.234,86.754l3.788,1.598
		c0.138,0.06,0.281,0.088,0.421,0.088c0.412,0,0.804-0.24,0.976-0.642c0.061-0.138,0.087-0.281,0.087-0.421
		c0-0.411-0.238-0.803-0.639-0.975l-3.789-1.599c-0.139-0.06-0.282-0.088-0.422-0.088c-0.412,0-0.803,0.241-0.977,0.643
		c-0.06,0.137-0.087,0.28-0.088,0.421C638.594,86.191,638.834,86.583,639.234,86.754"></path>
	<path style="position: relative;" id="path-163" clip-path="url(#SVGID_2_)" fill="#703E0D" d="M639.23,83.697L639.23,83.697l3.787,1.599c0.139,0.059,0.282,0.088,0.423,0.088
		c0.411-0.001,0.804-0.24,0.975-0.643c0.061-0.139,0.087-0.281,0.087-0.421c0-0.411-0.239-0.803-0.638-0.975l-3.79-1.599
		c-0.139-0.06-0.282-0.087-0.422-0.087c-0.411,0.001-0.803,0.24-0.977,0.642c-0.059,0.138-0.086,0.281-0.088,0.421
		C638.59,83.134,638.83,83.526,639.23,83.697"></path>
	<path style="position: relative;" id="path-164" clip-path="url(#SVGID_2_)" fill="#703E0D" d="M639.227,80.642l3.787,1.599c0.139,0.059,0.283,0.087,0.423,0.087
		c0.41-0.001,0.803-0.241,0.976-0.643c0.061-0.138,0.088-0.28,0.088-0.421c-0.002-0.411-0.241-0.802-0.64-0.974l-3.789-1.599
		c-0.14-0.059-0.283-0.088-0.423-0.088c-0.41,0.001-0.802,0.241-0.977,0.642c-0.059,0.138-0.086,0.281-0.087,0.422
		C638.587,80.078,638.826,80.47,639.227,80.642"></path>
	<path style="position: relative;" id="path-165" clip-path="url(#SVGID_2_)" fill="#703E0D" d="M638.669,76.188c-0.059,0.139-0.086,0.282-0.088,0.423
		c0.002,0.41,0.241,0.801,0.64,0.974l0.001-0.001l3.789,1.6c0.139,0.06,0.281,0.087,0.422,0.087c0.411-0.001,0.803-0.24,0.975-0.642
		c0.062-0.139,0.089-0.281,0.089-0.421c0-0.411-0.24-0.803-0.641-0.975l-3.788-1.599c-0.139-0.059-0.281-0.088-0.423-0.087
		C639.234,75.547,638.841,75.787,638.669,76.188"></path>
	<path style="position: relative;" id="path-166" clip-path="url(#SVGID_2_)" fill="#703E0D" d="M643.007,76.127c0.139,0.061,0.281,0.087,0.421,0.087
		c0.412,0,0.804-0.24,0.978-0.641c0.06-0.139,0.088-0.282,0.088-0.423c-0.001-0.282-0.116-0.553-0.318-0.752l-5.167,0.006
		c0.064,0.048,0.133,0.091,0.209,0.124h0.001L643.007,76.127z"></path>
	<path style="position: relative;" id="path-167" clip-path="url(#SVGID_2_)" fill="#703E0D" d="M623.791,53.815c0.283,0.115,0.474,0.176,0.556,0.201l0.438-0.001h0.004
		l3.679-0.005h0.004h0.435c0.089-0.028,0.308-0.1,0.626-0.228c0.423-0.173,1.015-0.443,1.674-0.832
		c1.191-0.702,2.604-1.79,3.676-3.379l-16.472,0.02C620.361,52.194,622.706,53.378,623.791,53.815"></path>
	<rect id="rect-9" x="618.028" y="47.392" clip-path="url(#SVGID_2_)" fill="#703E0D" width="17.185" height="1.483"></rect>
	<path style="position: relative;" id="path-168" clip-path="url(#SVGID_2_)" fill="#703E0D" d="M627.716,81.87l-2.108,0.002c-0.265,0.218-0.441,0.554-0.595,1.044
		c-0.103,0.371-0.147,0.745-0.147,1.156c0,0.651,0.117,1.399,0.287,2.333c0.213,1.149,0.676,2.631,1.085,3.817
		c0.159,0.462,0.311,0.878,0.435,1.215c0.125-0.337,0.273-0.754,0.434-1.216c0.406-1.186,0.865-2.67,1.073-3.819
		c0.171-0.936,0.285-1.683,0.284-2.335c-0.001-0.411-0.045-0.783-0.149-1.155C628.158,82.421,627.981,82.086,627.716,81.87"></path>
	<path style="position: relative;" id="path-169" clip-path="url(#SVGID_2_)" fill="#703E0D" d="M626.648,72.736c-1.345,0.004-2.432,1.095-2.432,2.44
		c0.003,1.348,1.094,2.435,2.439,2.436c1.346-0.004,2.435-1.095,2.435-2.441h0.001C629.088,73.824,627.997,72.737,626.648,72.736"></path>
	<path style="position: relative;" id="path-170" clip-path="url(#SVGID_2_)" fill="#703E0D" d="M624.285,80.633c0,0.294,0.241,0.534,0.535,0.534l3.68-0.004
		c0.295-0.001,0.534-0.241,0.535-0.536c-0.001-0.296-0.241-0.535-0.537-0.535l-3.679,0.004
		C624.525,80.097,624.285,80.337,624.285,80.633"></path>
	<path style="position: relative;" id="path-171" clip-path="url(#SVGID_2_)" fill="#703E0D" d="M624.817,78.321c-0.294,0.001-0.534,0.241-0.534,0.536
		c0,0.296,0.241,0.534,0.535,0.534l3.68-0.005c0.296-0.001,0.534-0.24,0.535-0.535c-0.001-0.295-0.242-0.534-0.537-0.535
		L624.817,78.321z"></path>
	<path style="position: relative;" id="path-172" clip-path="url(#SVGID_2_)" fill="#703E0D" d="M624.651,70.586c-0.016,0.137-0.023,0.261-0.023,0.372
		c0.008,0.57,0.173,0.792,0.34,0.924c0.169,0.131,0.407,0.168,0.572,0.167c0.104,0,0.153-0.011,0.153-0.011l0.033-0.007l0.922-0.001
		l0.923-0.001l0.032,0.006c0-0.003,0.053,0.01,0.157,0.01c0.165,0.002,0.404-0.036,0.573-0.168c0.166-0.132,0.33-0.354,0.337-0.925
		c-0.001-0.11-0.009-0.232-0.025-0.369c-0.232-1.959-0.611-10.379-0.698-12.313l-2.628,0.003
		C625.238,60.207,624.877,68.628,624.651,70.586"></path>
	<path style="position: relative;" id="path-173" clip-path="url(#SVGID_2_)" fill="#703E0D" d="M624.792,57.568l3.679-0.005c0.297-0.001,0.536-0.239,0.536-0.535
		c-0.001-0.295-0.24-0.534-0.536-0.535l-3.68,0.005c-0.294,0.001-0.534,0.24-0.534,0.536
		C624.258,57.33,624.498,57.568,624.792,57.568"></path>
	<path style="position: relative;" id="path-174" clip-path="url(#SVGID_2_)" fill="#703E0D" d="M629.005,55.251c-0.001-0.295-0.241-0.534-0.537-0.534l-3.679,0.005
		c-0.294,0-0.534,0.239-0.534,0.535c0.001,0.295,0.241,0.534,0.535,0.535l3.679-0.004C628.765,55.787,629.005,55.547,629.005,55.251
		"></path>
	<polygon clip-path="url(#SVGID_2_)" fill="#703E0D" points="626.243,92.297 624.571,91.446 624.994,93.729 623.354,95.368 
		625.654,95.672 626.709,97.739 627.709,95.646 630,95.28 628.317,93.682 628.679,91.392 627.128,92.233 626.639,92.499 	"></polygon>
	<path style="position: relative;" id="path-175" clip-path="url(#SVGID_2_)" fill="#703E0D" d="M111.175,62.982l-0.003-0.03v-0.045c-0.007-0.159,0.046-0.695,0.263-1.036
		c0.236-0.325,0.435-0.62,1.519-0.657c1.599-0.002,6.841-0.008,9.847-0.011c0.045-0.987,0.083-1.852,0.108-2.471
		c-0.877,0-1.957,0.001-3.091,0.002c-2.72,0.004-5.724,0.008-6.867,0.009c-0.034,0-0.069-0.001-0.104-0.001
		c-1.714,0.002-2.981,0.876-3.531,1.856c-0.578,0.983-0.61,1.91-0.614,2.312c0,0.057,0,0.105,0.002,0.139l0.004,4.511l2.472-0.003
		L111.175,62.982z"></path>
	<path style="position: relative;" id="path-176" clip-path="url(#SVGID_2_)" fill="#703E0D" d="M106.007,73.527l8.038-0.01c-1.644-1.27-2.301-2.855-2.509-3.478l-3.028,0.003
		C108.301,70.667,107.649,72.254,106.007,73.527"></path>
	<path style="position: relative;" id="path-177" clip-path="url(#SVGID_2_)" fill="#703E0D" d="M111.859,69.332c0.297,0,0.536-0.24,0.536-0.536
		c-0.001-0.295-0.24-0.533-0.536-0.533l-3.68,0.005c-0.293,0-0.533,0.24-0.533,0.534h0.001c0,0.296,0.24,0.535,0.533,0.535
		L111.859,69.332z"></path>
	<path style="position: relative;" id="path-178" clip-path="url(#SVGID_2_)" fill="#703E0D" d="M136.553,61.186c1.18,0.036,1.437,0.376,1.72,0.782
		c0.261,0.424,0.323,1.061,0.316,1.287c0,0.031,0,0.053-0.001,0.063l-0.004,0.051l0.005,4.156l2.471-0.003l-0.004-4.062
		c0.002-0.049,0.005-0.119,0.005-0.208c-0.008-0.462-0.047-1.477-0.656-2.535c-0.577-1.054-1.915-2.006-3.748-2.004
		c-0.036,0-0.07,0.001-0.106,0.001c-1.578,0.003-6.599,0.008-9.549,0.012c0.027,0.62,0.067,1.485,0.114,2.471
		C130.079,61.194,134.994,61.188,136.553,61.186"></path>
	<path style="position: relative;" id="path-179" clip-path="url(#SVGID_2_)" fill="#703E0D" d="M110.057,99.288c0,0-3.426,0.004-3.422,3.62
		c0.005,3.616,3.435,7.418,3.435,7.418s3.421-3.81,3.417-7.426C113.482,99.284,110.057,99.288,110.057,99.288"></path>
	<path style="position: relative;" id="path-180" clip-path="url(#SVGID_2_)" fill="#703E0D" d="M107.736,95.847l3.788,1.598c0.139,0.06,0.281,0.087,0.422,0.087
		c0.411,0,0.803-0.24,0.975-0.643c0.06-0.138,0.087-0.28,0.087-0.421c0-0.411-0.239-0.801-0.639-0.974l-3.789-1.599
		c-0.138-0.059-0.281-0.087-0.422-0.087c-0.412,0.001-0.804,0.24-0.976,0.641c-0.059,0.139-0.087,0.281-0.088,0.423
		C107.096,95.283,107.336,95.675,107.736,95.847"></path>
	<path style="position: relative;" id="path-181" clip-path="url(#SVGID_2_)" fill="#703E0D" d="M107.733,92.791l3.788,1.598c0.138,0.06,0.281,0.088,0.42,0.088
		c0.413-0.001,0.804-0.24,0.977-0.644c0.06-0.139,0.087-0.28,0.087-0.42c0-0.412-0.24-0.802-0.639-0.976l-3.789-1.597
		c-0.138-0.061-0.281-0.088-0.423-0.088c-0.41,0-0.803,0.24-0.975,0.641c-0.06,0.138-0.087,0.281-0.088,0.422
		C107.093,92.226,107.332,92.618,107.733,92.791"></path>
	<path style="position: relative;" id="path-182" clip-path="url(#SVGID_2_)" fill="#703E0D" d="M107.29,98.532l5.025-0.006l-3.731-1.574c-0.138-0.061-0.281-0.087-0.422-0.087
		c-0.411,0-0.804,0.24-0.976,0.641c-0.06,0.138-0.086,0.28-0.088,0.422C107.099,98.145,107.168,98.356,107.29,98.532"></path>
	<path style="position: relative;" id="path-183" clip-path="url(#SVGID_2_)" fill="#703E0D" d="M107.729,89.734l3.787,1.598c0.14,0.06,0.282,0.088,0.422,0.088
		c0.412-0.001,0.803-0.24,0.976-0.642c0.06-0.139,0.087-0.282,0.087-0.422c0-0.411-0.239-0.802-0.639-0.976l-3.789-1.597
		c-0.138-0.061-0.282-0.088-0.423-0.088c-0.411,0-0.803,0.241-0.975,0.641c-0.06,0.139-0.087,0.281-0.088,0.422
		C107.088,89.17,107.33,89.563,107.729,89.734"></path>
	<path style="position: relative;" id="path-184" clip-path="url(#SVGID_2_)" fill="#703E0D" d="M107.726,86.678L107.726,86.678l3.788,1.598
		c0.138,0.06,0.281,0.088,0.421,0.088c0.412,0,0.803-0.24,0.976-0.643c0.061-0.137,0.088-0.28,0.088-0.42
		c-0.001-0.412-0.241-0.803-0.64-0.975l-3.789-1.599c-0.138-0.061-0.281-0.089-0.423-0.088c-0.41,0.001-0.802,0.241-0.976,0.643
		c-0.058,0.137-0.086,0.28-0.087,0.421C107.085,86.115,107.325,86.506,107.726,86.678"></path>
	<path style="position: relative;" id="path-185" clip-path="url(#SVGID_2_)" fill="#703E0D" d="M107.722,83.621L107.722,83.621l3.787,1.599
		c0.139,0.059,0.281,0.088,0.421,0.088c0.413-0.001,0.804-0.241,0.977-0.644c0.06-0.138,0.087-0.28,0.087-0.42
		c0-0.412-0.24-0.802-0.639-0.975l-3.789-1.599c-0.139-0.061-0.282-0.087-0.423-0.087c-0.41,0.001-0.803,0.24-0.976,0.642
		c-0.058,0.138-0.086,0.28-0.087,0.421C107.081,83.058,107.321,83.45,107.722,83.621"></path>
	<path style="position: relative;" id="path-186" clip-path="url(#SVGID_2_)" fill="#703E0D" d="M107.718,80.565l3.788,1.599c0.138,0.059,0.282,0.088,0.421,0.087
		c0.412-0.001,0.803-0.241,0.976-0.643c0.061-0.138,0.088-0.28,0.087-0.421c0-0.412-0.239-0.802-0.639-0.975l-3.788-1.598
		c-0.139-0.06-0.283-0.089-0.424-0.089c-0.411,0.002-0.802,0.242-0.975,0.643c-0.06,0.138-0.087,0.281-0.088,0.421
		C107.078,80.001,107.318,80.394,107.718,80.565"></path>
	<path style="position: relative;" id="path-187" clip-path="url(#SVGID_2_)" fill="#703E0D" d="M107.161,76.112c-0.06,0.139-0.087,0.281-0.088,0.422
		c0.002,0.411,0.241,0.801,0.639,0.975l0.001-0.001l3.789,1.6c0.139,0.06,0.282,0.087,0.423,0.087
		c0.411-0.001,0.802-0.24,0.975-0.643c0.06-0.138,0.088-0.28,0.088-0.42c0-0.411-0.241-0.803-0.64-0.976l-3.788-1.598
		c-0.14-0.06-0.282-0.088-0.423-0.088C107.726,75.471,107.333,75.711,107.161,76.112"></path>
	<path style="position: relative;" id="path-188" clip-path="url(#SVGID_2_)" fill="#703E0D" d="M111.499,76.051c0.138,0.061,0.282,0.088,0.421,0.087
		c0.412,0,0.804-0.24,0.976-0.641c0.061-0.139,0.088-0.282,0.088-0.422c0-0.283-0.115-0.554-0.318-0.753l-5.167,0.006
		c0.064,0.048,0.134,0.091,0.21,0.125v-0.001L111.499,76.051z"></path>
	<path style="position: relative;" id="path-189" clip-path="url(#SVGID_2_)" fill="#703E0D" d="M141.366,70.003l-3.027,0.003c-0.206,0.624-0.859,2.212-2.501,3.485
		l8.037-0.009C142.232,72.212,141.574,70.626,141.366,70.003"></path>
	<path style="position: relative;" id="path-190" clip-path="url(#SVGID_2_)" fill="#703E0D" d="M137.477,68.767c0,0.296,0.241,0.535,0.535,0.535l3.68-0.005
		c0.296-0.001,0.534-0.239,0.534-0.536c-0.001-0.294-0.24-0.533-0.536-0.533l-3.68,0.004
		C137.715,68.232,137.477,68.473,137.477,68.767"></path>
	<path style="position: relative;" id="path-191" clip-path="url(#SVGID_2_)" fill="#703E0D" d="M143.317,102.865c-0.005-3.616-3.431-3.612-3.431-3.612
		s-3.425,0.004-3.421,3.62c0.001,0.473,0.061,0.95,0.165,1.421c0.219,1.007,0.635,1.988,1.1,2.853c0.98,1.824,2.17,3.144,2.17,3.144
		s1.187-1.323,2.161-3.149c0.464-0.867,0.879-1.848,1.095-2.856C143.258,103.815,143.317,103.338,143.317,102.865"></path>
	<path style="position: relative;" id="path-192" clip-path="url(#SVGID_2_)" fill="#703E0D" d="M137.566,95.812l3.789,1.598c0.137,0.06,0.28,0.087,0.421,0.087
		c0.411-0.001,0.804-0.24,0.975-0.642c0.061-0.139,0.089-0.281,0.089-0.422c-0.001-0.41-0.241-0.801-0.639-0.974l-3.791-1.599
		c-0.138-0.06-0.281-0.087-0.422-0.087c-0.411,0-0.803,0.24-0.977,0.641c-0.058,0.139-0.085,0.281-0.087,0.423
		C136.927,95.248,137.167,95.64,137.566,95.812"></path>
	<path style="position: relative;" id="path-193" clip-path="url(#SVGID_2_)" fill="#703E0D" d="M137.563,92.756l3.787,1.597c0.139,0.06,0.281,0.088,0.421,0.088
		c0.412-0.001,0.804-0.24,0.977-0.643c0.061-0.139,0.087-0.28,0.087-0.421c0-0.411-0.24-0.802-0.639-0.975l-3.789-1.598
		c-0.139-0.06-0.282-0.088-0.423-0.088c-0.411,0-0.802,0.241-0.975,0.641c-0.059,0.139-0.087,0.282-0.088,0.423
		C136.922,92.191,137.164,92.583,137.563,92.756"></path>
	<path style="position: relative;" id="path-194" clip-path="url(#SVGID_2_)" fill="#703E0D" d="M137.121,98.497l5.026-0.006l-3.732-1.575c-0.138-0.06-0.282-0.087-0.422-0.087
		c-0.412,0.001-0.803,0.24-0.976,0.641c-0.06,0.138-0.087,0.281-0.087,0.423C136.93,98.11,136.999,98.321,137.121,98.497"></path>
	<path style="position: relative;" id="path-195" clip-path="url(#SVGID_2_)" fill="#703E0D" d="M137.56,89.699l3.788,1.598c0.138,0.06,0.281,0.088,0.422,0.088
		c0.411-0.001,0.803-0.24,0.975-0.642c0.06-0.139,0.088-0.282,0.087-0.422c0-0.411-0.239-0.802-0.639-0.975l-3.789-1.599
		c-0.138-0.06-0.282-0.087-0.423-0.087c-0.411,0-0.802,0.241-0.975,0.641c-0.06,0.139-0.086,0.282-0.087,0.422
		C136.92,89.136,137.16,89.527,137.56,89.699"></path>
	<path style="position: relative;" id="path-196" clip-path="url(#SVGID_2_)" fill="#703E0D" d="M137.556,86.642L137.556,86.642l3.788,1.598
		c0.138,0.06,0.281,0.088,0.421,0.088c0.412,0,0.803-0.24,0.976-0.642c0.061-0.138,0.088-0.281,0.088-0.421
		c0-0.411-0.24-0.803-0.64-0.975l-3.789-1.599c-0.138-0.06-0.282-0.088-0.423-0.088c-0.411,0-0.802,0.241-0.975,0.643
		c-0.06,0.137-0.087,0.28-0.088,0.421C136.915,86.079,137.156,86.471,137.556,86.642"></path>
	<path style="position: relative;" id="path-197" clip-path="url(#SVGID_2_)" fill="#703E0D" d="M137.552,83.585L137.552,83.585l3.788,1.599
		c0.138,0.059,0.281,0.088,0.422,0.088c0.41-0.001,0.804-0.24,0.975-0.643c0.061-0.139,0.088-0.281,0.088-0.421
		c-0.001-0.411-0.241-0.803-0.64-0.975l-3.789-1.599c-0.139-0.06-0.282-0.087-0.422-0.087c-0.411,0.001-0.803,0.24-0.976,0.642
		c-0.059,0.138-0.087,0.281-0.088,0.421C136.912,83.022,137.152,83.415,137.552,83.585"></path>
	<path style="position: relative;" id="path-198" clip-path="url(#SVGID_2_)" fill="#703E0D" d="M137.549,80.53l3.787,1.599c0.138,0.059,0.282,0.087,0.422,0.087
		c0.411-0.001,0.803-0.241,0.976-0.643c0.061-0.138,0.088-0.28,0.088-0.421c-0.001-0.411-0.241-0.802-0.64-0.974l-3.789-1.599
		c-0.139-0.059-0.282-0.088-0.423-0.088c-0.41,0.001-0.802,0.241-0.975,0.642c-0.059,0.138-0.087,0.281-0.087,0.422
		C136.909,79.966,137.148,80.358,137.549,80.53"></path>
	<path style="position: relative;" id="path-199" clip-path="url(#SVGID_2_)" fill="#703E0D" d="M136.991,76.076c-0.059,0.139-0.086,0.282-0.088,0.423
		c0.003,0.41,0.241,0.801,0.64,0.974v-0.001l3.79,1.6c0.138,0.06,0.281,0.087,0.422,0.087c0.41-0.001,0.802-0.24,0.974-0.642
		c0.062-0.139,0.089-0.281,0.088-0.421c0-0.411-0.24-0.803-0.639-0.975l-3.789-1.599c-0.139-0.059-0.281-0.088-0.422-0.087
		C137.556,75.435,137.163,75.675,136.991,76.076"></path>
	<path style="position: relative;" id="path-200" clip-path="url(#SVGID_2_)" fill="#703E0D" d="M141.329,76.016c0.139,0.061,0.282,0.087,0.421,0.087
		c0.412,0,0.804-0.24,0.977-0.641c0.06-0.139,0.088-0.282,0.088-0.423c-0.001-0.282-0.116-0.553-0.318-0.752l-5.167,0.006
		c0.064,0.048,0.133,0.091,0.209,0.124h0.001L141.329,76.016z"></path>
	<path style="position: relative;" id="path-201" clip-path="url(#SVGID_2_)" fill="#703E0D" d="M122.113,53.704c0.284,0.115,0.474,0.176,0.556,0.201l0.438-0.001h0.003
		l3.679-0.005h0.004h0.435c0.089-0.028,0.307-0.1,0.625-0.228c0.423-0.173,1.015-0.443,1.675-0.832
		c1.191-0.702,2.603-1.79,3.675-3.379l-16.472,0.02C118.684,52.083,121.028,53.267,122.113,53.704"></path>
	<rect id="rect-10" x="116.351" y="47.281" clip-path="url(#SVGID_2_)" fill="#703E0D" width="17.184" height="1.483"></rect>
	<path style="position: relative;" id="path-202" clip-path="url(#SVGID_2_)" fill="#703E0D" d="M126.038,81.758l-2.108,0.002c-0.265,0.218-0.442,0.554-0.595,1.044
		c-0.103,0.371-0.148,0.745-0.148,1.156c0,0.651,0.119,1.399,0.289,2.333c0.211,1.149,0.674,2.631,1.084,3.817
		c0.159,0.462,0.31,0.878,0.435,1.215c0.124-0.337,0.274-0.754,0.433-1.216c0.405-1.186,0.865-2.67,1.073-3.819
		c0.17-0.936,0.286-1.683,0.285-2.335c-0.001-0.411-0.046-0.783-0.151-1.155C126.48,82.31,126.303,81.975,126.038,81.758"></path>
	<path style="position: relative;" id="path-203" clip-path="url(#SVGID_2_)" fill="#703E0D" d="M124.971,72.625c-1.346,0.004-2.433,1.095-2.433,2.44
		c0.003,1.348,1.094,2.435,2.439,2.436c1.347-0.004,2.435-1.095,2.436-2.441C127.409,73.712,126.319,72.625,124.971,72.625"></path>
	<path style="position: relative;" id="path-204" clip-path="url(#SVGID_2_)" fill="#703E0D" d="M122.607,80.521c0.001,0.294,0.241,0.534,0.535,0.534l3.68-0.004
		c0.295-0.001,0.534-0.241,0.535-0.536c-0.001-0.296-0.241-0.535-0.537-0.535l-3.678,0.004
		C122.847,79.985,122.607,80.226,122.607,80.521"></path>
	<path style="position: relative;" id="path-205" clip-path="url(#SVGID_2_)" fill="#703E0D" d="M123.14,78.209c-0.295,0.001-0.535,0.241-0.535,0.536
		c0,0.296,0.242,0.534,0.535,0.534l3.68-0.005c0.297-0.001,0.534-0.24,0.535-0.535c-0.001-0.295-0.241-0.534-0.536-0.535
		L123.14,78.209z"></path>
	<path style="position: relative;" id="path-206" clip-path="url(#SVGID_2_)" fill="#703E0D" d="M122.973,70.474c-0.016,0.137-0.022,0.261-0.022,0.372
		c0.006,0.57,0.171,0.792,0.338,0.924c0.169,0.131,0.408,0.168,0.573,0.167c0.104,0,0.153-0.011,0.153-0.011l0.033-0.007
		l0.923-0.001l0.922-0.001l0.032,0.006c0-0.003,0.052,0.01,0.157,0.01c0.165,0.002,0.405-0.036,0.574-0.168
		c0.166-0.132,0.33-0.354,0.337-0.925c-0.001-0.11-0.009-0.232-0.026-0.369c-0.232-1.959-0.612-10.379-0.698-12.313l-2.628,0.003
		C123.559,60.095,123.199,68.516,122.973,70.474"></path>
	<path style="position: relative;" id="path-207" clip-path="url(#SVGID_2_)" fill="#703E0D" d="M123.114,57.456l3.679-0.005c0.296-0.001,0.535-0.239,0.535-0.535
		c-0.001-0.295-0.239-0.534-0.536-0.535l-3.679,0.005c-0.294,0.001-0.535,0.24-0.535,0.536
		C122.58,57.218,122.82,57.456,123.114,57.456"></path>
	<path style="position: relative;" id="path-208" clip-path="url(#SVGID_2_)" fill="#703E0D" d="M127.327,55.14c-0.001-0.295-0.242-0.534-0.536-0.534l-3.679,0.005
		c-0.295,0-0.535,0.239-0.535,0.535c0.001,0.295,0.241,0.534,0.536,0.535l3.678-0.004C127.086,55.675,127.327,55.436,127.327,55.14"></path>
	<polygon clip-path="url(#SVGID_2_)" fill="#703E0D" points="124.565,92.186 122.894,91.334 123.316,93.617 121.675,95.256 
		123.976,95.561 125.03,97.627 126.03,95.534 128.322,95.168 126.639,93.57 127,91.28 125.45,92.122 124.961,92.387 	"></polygon>
</g>
<path style="position: relative;" id="path-209" fill="#020202" d="M298.095,287.435c0-3.494-2.842-6.337-6.336-6.337c-3.496,0-6.339,2.843-6.339,6.337
	c0,0.063,0.008,0.122,0.011,0.184h-3.051l-1.15-6.811l-5.769-5.215l-0.765,0.844l5.478,4.949l1.051,6.233h-4.396l-0.154,0.272
	c-0.865,1.519-1.351,3.258-1.475,5.071c-0.262,0.886-0.147,3.125,0.808,5.387c0.07,0.175,0.147,0.346,0.226,0.515
	c0.018,0.042,0.034,0.08,0.054,0.122c1.356,2.866,3.792,4.938,6.666,5.434v13.267c-2.642,0.106-4.612,0.507-4.612,0.988
	c0,0.561,2.688,1.014,5.996,1.014c3.315,0,5.999-0.453,5.999-1.014c0-0.481-1.967-0.882-4.608-0.988v-13.28
	c0.891-0.168,1.74-0.492,2.53-0.938c4.493-1.966,5.551-7.721,5.318-9.986C296.182,292.695,298.095,290.294,298.095,287.435
	 M278.089,298.075c-0.509,0-0.925-0.415-0.925-0.924c0-0.512,0.416-0.924,0.925-0.924c0.511,0,0.926,0.413,0.926,0.924
	C279.015,297.661,278.6,298.075,278.089,298.075 M276.285,292.708c0.139-1.425,0.53-2.794,1.173-4.014h3.948l0.83,4.924
	C278.459,294.713,276.285,292.708,276.285,292.708 M282.571,299.069c-0.551,0-0.997-0.444-0.997-0.994
	c0-0.55,0.446-0.996,0.997-0.996c0.092,0,0.176,0.03,0.261,0.053l0.174,1.036l0.561-0.093
	C283.566,298.625,283.121,299.069,282.571,299.069 M285.913,297.507c-0.355,0-0.641-0.286-0.641-0.64
	c0-0.354,0.286-0.641,0.641-0.641c0.351,0,0.64,0.286,0.64,0.641C286.552,297.222,286.264,297.507,285.913,297.507 M287.12,300.208
	c-0.313,0-0.568-0.252-0.568-0.567s0.255-0.571,0.568-0.571c0.317,0,0.569,0.256,0.569,0.571S287.437,300.208,287.12,300.208
	 M289.752,294.946c-0.119,0-0.213-0.096-0.213-0.212c0-0.119,0.095-0.213,0.213-0.213c0.12,0,0.213,0.094,0.213,0.213
	C289.965,294.851,289.872,294.946,289.752,294.946 M290.571,298.075c-0.333,0-0.605-0.271-0.605-0.605
	c0-0.332,0.272-0.603,0.605-0.603c0.334,0,0.604,0.271,0.604,0.603C291.175,297.805,290.905,298.075,290.571,298.075
	 M284.418,292.708c-0.378,0.207-0.739,0.376-1.093,0.524l-0.765-4.539h2.991c0.004,0.021,0.006,0.042,0.009,0.061h0.441
	c-0.004-0.02-0.004-0.041-0.009-0.061h1.376c-0.058,0.021-0.125,0.043-0.174,0.061h2.529c0.033-0.02,0.068-0.041,0.104-0.061h0.605
	c-0.02,0.022-0.039,0.038-0.061,0.061h0.764c0.005-0.006,0.006-0.014,0.01-0.02c0.632,1.21,1.018,2.562,1.156,3.973
	C292.303,292.708,289.539,289.901,284.418,292.708 M293.506,293.055c-0.034-0.142-0.073-0.262-0.121-0.347h-0.013
	c-0.009-0.099-0.029-0.196-0.042-0.295l1.08-0.467c0,0-0.655-1.321-1.409-2.622v1.31c-0.169-0.647-0.387-1.278-0.664-1.879h0.328
	c-0.303-0.496-0.608-0.96-0.883-1.309c0.014,0.099,0.04,0.215,0.061,0.325l-0.036-0.063c-0.009-0.087-0.015-0.185-0.027-0.265
	c-0.001-0.002-0.001-0.002-0.003-0.004c0,0,0,0.002-0.002,0.004c0.002,0.013,0.005,0.027,0.006,0.039
	c-0.001-0.012-0.003-0.025-0.006-0.038c-0.02,0.053-0.039,0.119-0.06,0.174h-0.021c0.021-0.047,0.05-0.102,0.067-0.146
	c0.004-0.009,0.009-0.022,0.01-0.032c-0.009,0.007-0.016,0.013-0.026,0.022c0.001,0,0.001,0,0.001-0.002
	c0,0.002,0,0.002-0.001,0.002c0,0-0.002,0-0.005,0.002l0.004-0.002c-0.055,0.044-0.122,0.107-0.18,0.155h-0.042
	c0.079-0.059,0.169-0.121,0.242-0.178c-0.261,0.039-0.567,0.103-0.883,0.178h-5.024c-0.002-0.062-0.01-0.122-0.01-0.184
	c0-3.258,2.649-5.91,5.911-5.91c3.259,0,5.908,2.652,5.908,5.91C297.667,290.081,295.908,292.305,293.506,293.055"></path>
<path style="position: relative;" id="path-210" fill="#020202" d="M291.809,287.407c1.35-1.077,3.567-3.757,3.567-3.757l-1.006-0.748c0,0-1.921,2.875-2.577,4.495
	c-0.004,0.01-0.007,0.022-0.013,0.033C291.792,287.421,291.798,287.417,291.809,287.407"></path>
<path style="position: relative;" id="path-211" fill="#020202" d="M291.795,287.392c-0.003,0.013-0.013,0.025-0.016,0.037c0.003-0.011,0.01-0.021,0.014-0.031
	C291.793,287.394,291.795,287.394,291.795,287.392"></path>
<path style="position: relative;" id="path-212" fill="#020202" d="M291.75,287.403c-1.079-1.351-3.758-3.567-3.758-3.567l-0.75,1.004c0,0,2.876,1.922,4.497,2.579
	c0.011,0.003,0.022,0.008,0.032,0.013C291.762,287.421,291.756,287.412,291.75,287.403"></path>
<path style="position: relative;" id="path-213" fill="#020202" d="M291.733,287.417c0.013,0.003,0.023,0.009,0.036,0.015c-0.011-0.004-0.022-0.01-0.031-0.013
	C291.737,287.417,291.735,287.417,291.733,287.417"></path>
<path style="position: relative;" id="path-214" fill="#020202" d="M296.287,284.802c0,0-3.135,1.552-4.499,2.628c1.719-0.253,5.001-1.471,5.001-1.471L296.287,284.802z"></path>
<path style="position: relative;" id="path-215" fill="#020202" d="M289.143,282.925c0,0,1.553,3.134,2.627,4.498c-0.251-1.716-1.47-5.001-1.47-5.001L289.143,282.925z"></path>
<path style="position: relative;" id="path-216" fill="#020202" d="M291.779,287.427c-0.002-0.014-0.005-0.025-0.008-0.04c0.003,0.014,0.006,0.024,0.008,0.036
	c0.639-1.614,1.222-5.064,1.222-5.064s-0.805-0.152-1.225-0.152c-0.007,0-0.022,0.002-0.022,0.002s-0.229,3.496,0.016,5.218
	c0.003,0.001,0.003,0.003,0.006,0.005C291.777,287.43,291.777,287.428,291.779,287.427"></path>
<path style="position: relative;" id="path-217" fill="#020202" d="M291.77,287.434c-0.015,0.001-0.026,0.001-0.04,0.005c0.013-0.003,0.025-0.005,0.035-0.007
	c-1.616-0.639-5.064-1.223-5.064-1.223s-0.151,0.803-0.151,1.226c0,0.008,0.002,0.022,0.002,0.022s3.495,0.228,5.217-0.019
	c0.002-0.002,0.003-0.003,0.003-0.004L291.77,287.434z"></path>
<path style="position: relative;" id="path-218" fill="#020202" d="M291.786,287.436c0.011,0,0.024-0.001,0.037-0.003c-0.01,0.002-0.024,0.003-0.034,0.005
	c1.616,0.64,5.067,1.224,5.067,1.224l0.149-1.226c0,0,0-0.016,0-0.023c-1.744-0.232-3.497-0.228-5.218,0.021
	c-0.003,0-0.003,0.002-0.005,0.003C291.782,287.436,291.782,287.436,291.786,287.436"></path>
<path style="position: relative;" id="path-219" fill="#020202" d="M291.782,287.439c0.009,0.009,0.014,0.018,0.022,0.028c1.076,1.35,3.757,3.567,3.757,3.567l0.749-1.007
	c0,0-2.875-1.921-4.497-2.576c-0.009-0.004-0.02-0.01-0.032-0.014c0.01,0.004,0.016,0.006,0.023,0.009
	C291.798,287.443,291.791,287.441,291.782,287.439"></path>
<path style="position: relative;" id="path-220" fill="#020202" d="M291.774,287.441c-0.005,0.01-0.01,0.022-0.014,0.032c0,0.001-0.002,0.003-0.002,0.006
	C291.762,287.468,291.77,287.454,291.774,287.441"></path>
<polygon fill="#020202" points="291.774,287.434 291.775,287.434 291.774,287.432 291.775,287.432 291.774,287.432 "></polygon>
<polygon fill="#020202" points="291.78,287.436 291.78,287.435 291.779,287.436 "></polygon>
<polyline fill="#020202" points="291.779,287.439 291.78,287.443 291.782,287.447 291.78,287.441 291.779,287.439 "></polyline>
<polygon fill="#020202" points="291.779,287.432 291.777,287.432 291.779,287.434 "></polygon>
<polyline fill="#020202" points="291.78,287.438 291.782,287.438 291.788,287.438 291.786,287.436 291.78,287.438 "></polyline>
<polygon fill="#020202" points="291.779,287.438 291.779,287.438 291.777,287.438 291.777,287.438 291.779,287.438 "></polygon>
<polyline fill="#020202" points="291.774,287.439 291.777,287.439 291.777,287.438 291.774,287.439 "></polyline>
<polyline fill="#020202" points="291.771,287.438 291.768,287.438 291.765,287.441 291.77,287.439 291.771,287.438 "></polyline>
<path style="position: relative;" id="path-221" fill="#020202" d="M291.777,287.438h0.002H291.777z"></path>
<path style="position: relative;" id="path-222" fill="#020202" d="M291.78,287.441c0.011,0.01,0.018,0.021,0.027,0.03c-0.002-0.001-0.002-0.003-0.002-0.004
	C291.796,287.458,291.79,287.451,291.78,287.441"></path>
<path style="position: relative;" id="path-223" fill="#020202" d="M291.771,287.43c-0.009-0.011-0.016-0.021-0.025-0.032c0,0.003,0.001,0.004,0.004,0.005
	C291.756,287.412,291.765,287.419,291.771,287.43"></path>
<polyline fill="#020202" points="291.779,287.439 291.78,287.441 291.78,287.439 291.782,287.439 291.782,287.438 291.78,287.438 
	291.779,287.439 "></polyline>
<polygon fill="#020202" points="291.777,287.432 291.777,287.432 291.775,287.432 "></polygon>
<path style="position: relative;" id="path-224" fill="#020202" d="M291.779,287.438L291.779,287.438L291.779,287.438z"></path>
<polygon fill="#020202" points="291.779,287.436 291.779,287.436 291.779,287.438 "></polygon>
<path style="position: relative;" id="path-225" fill="#020202" d="M291.779,287.438L291.779,287.438L291.779,287.438z"></path>
<path style="position: relative;" id="path-226" fill="#020202" d="M291.771,287.432"></path>
<polyline fill="#020202" points="291.771,287.43 291.771,287.432 291.773,287.432 291.771,287.43 "></polyline>
<polygon fill="#020202" points="291.773,287.439 291.774,287.441 291.774,287.445 291.774,287.443 291.774,287.439 "></polygon>
<polyline fill="#020202" points="291.774,287.436 291.774,287.436 291.774,287.435 291.773,287.435 291.774,287.436 
	291.771,287.435 291.771,287.438 291.774,287.436 "></polyline>
<polygon fill="#020202" points="291.771,287.434 291.771,287.435 291.773,287.435 "></polygon>
<polyline fill="#020202" points="291.771,287.427 291.771,287.423 291.771,287.43 291.774,287.432 291.771,287.427 "></polyline>
<polygon fill="#020202" points="291.779,287.432 291.779,287.432 291.779,287.43 291.779,287.428 291.779,287.423 291.779,287.427 
	"></polygon>
<polygon fill="#020202" points="291.774,287.436 291.774,287.436 291.775,287.436 "></polygon>
<polyline fill="#020202" points="291.775,287.434 291.774,287.434 291.774,287.436 291.777,287.435 291.775,287.434 "></polyline>
<polyline fill="#020202" points="291.777,287.435 291.779,287.434 291.777,287.434 291.777,287.432 291.775,287.434 
	291.777,287.435 "></polyline>
<path style="position: relative;" id="path-227" fill="#020202" d="M291.782,287.43c0.011-0.009,0.02-0.017,0.031-0.026c-0.001,0.002-0.005,0.002-0.005,0.002
	C291.798,287.416,291.793,287.422,291.782,287.43"></path>
<path style="position: relative;" id="path-228" fill="#020202" d="M291.77,287.439c-0.009,0.007-0.015,0.016-0.023,0.022c0.009-0.007,0.014-0.015,0.025-0.022H291.77z"></path>
<rect id="rect-11" x="291.771" y="287.438" fill="#020202" width="0.003" height="0.002"></rect>
<polyline fill="#020202" points="291.777,287.435 291.777,287.436 291.777,287.437 291.777,287.436 291.777,287.435 "></polyline>
<polygon fill="#020202" points="291.779,287.436 291.779,287.436 291.779,287.435 "></polygon>
<polyline fill="#020202" points="291.779,287.436 291.779,287.435 291.78,287.435 291.78,287.432 291.779,287.435 291.777,287.435 
	291.779,287.436 "></polyline>
<polygon fill="#020202" points="291.777,287.436 291.779,287.438 291.779,287.436 "></polygon>
<polygon fill="#020202" points="291.774,287.438 291.774,287.438 291.773,287.438 "></polygon>
<polygon fill="#020202" points="291.774,287.438 291.775,287.438 291.774,287.436 "></polygon>
<path style="position: relative;" id="path-229" fill="#020202" d="M291.775,287.436h0.001H291.775z"></path>
<path style="position: relative;" id="path-230" fill="#020202" d="M291.777,287.435"></path>
<path style="position: relative;" id="path-231" fill="#020202" d="M291.774,287.438v-0.002V287.438z"></path>
<polyline fill="#020202" points="291.773,287.439 291.774,287.439 291.774,287.438 291.773,287.439 "></polyline>
<path style="position: relative;" id="path-232" fill="#020202" d="M291.774,287.432"></path>
<polyline fill="#020202" points="291.782,287.43 291.78,287.431 291.78,287.43 291.779,287.43 291.78,287.432 291.782,287.43 "></polyline>
<path style="position: relative;" id="path-233" fill="#020202" d="M291.779,287.432L291.779,287.432L291.779,287.432z"></path>
<polyline fill="#020202" points="291.771,287.432 291.771,287.432 291.77,287.432 291.765,287.432 291.77,287.434 291.771,287.432 
	"></polyline>
<polygon fill="#020202" points="291.777,287.432 291.777,287.432 291.774,287.432 "></polygon>
<path style="position: relative;" id="path-234" fill="#020202" d="M291.774,287.432h-0.003H291.774z"></path>
<path style="position: relative;" id="path-235" fill="#020202" d="M291.774,287.432h-0.001H291.774z"></path>
<polyline fill="#020202" points="291.779,287.432 291.777,287.432 291.779,287.432 "></polyline>
<polygon fill="#020202" points="291.777,287.432 291.777,287.432 291.777,287.432 "></polygon>
<rect id="rect-12" x="291.782" y="287.428" fill="#020202" width="0.003" height="0.006"></rect>
<path style="position: relative;" id="path-236" fill="#020202" d="M292.665,288.755c0.112,0.186,0.226,0.377,0.336,0.568v-0.568H292.665z"></path>
<path style="position: relative;" id="path-237" d="M326.368,319.173c0,0.806-3.303,2.006-8.184,2.383h-15.956c-4.881-0.377-8.181-1.577-8.181-2.383H326.368z M309.492,298.854
	c3.4-1.729,2.887-4.16,1.267-6.761c-0.696-1.109-1.714-2.387-0.117-4.653c-3.037,1.13-2.566,4.023-1.69,5.627
	C310.067,295.111,310.824,295.974,309.492,298.854 M317.494,316.853c-0.032,0.296-0.056,0.617-0.067,0.953h-14.44
	c-0.226-7.356-5.972-7.812-5.038-17.051h24.515c0.047,0.461,0.079,0.89,0.095,1.298c2.946-0.801,5.043-0.547,6.321,0.301
	c6.297,4.195-6.398,14.265-11.386,14.497V316.853z M327.858,303.782c-0.939-0.623-2.691-0.725-5.349,0.094
	c-0.449,4.688-3.5,7.68-4.649,11.217C321.295,314.858,331.981,306.528,327.858,303.782"></path>
</svg>
